# Tiled2Unity generated file. Do not modify by hand.
# Wavefront file for 'map_1_3_3_mesh_0021.obj'

# Vertices (Count = 48)
v -1.6 -7.36 0
v -1.92 -7.36 0
v -1.92 -7.04 0
v -1.6 -7.04 0
v -1.92 -8 0
v -2.24 -8 0
v -2.24 -7.68 0
v -1.92 -7.68 0
v -3.52 -8 0
v -3.84 -8 0
v -3.84 -7.68 0
v -3.52 -7.68 0
v -4.8 -8 0
v -5.12 -8 0
v -5.12 -7.68 0
v -4.8 -7.68 0
v 0 -8.32 0
v -0.32 -8.32 0
v -0.32 -8 0
v 0 -8 0
v -1.92 -8.32 0
v -2.24 -8.32 0
v -2.24 -8 0
v -1.92 -8 0
v -3.2 -8.32 0
v -3.52 -8.32 0
v -3.52 -8 0
v -3.2 -8 0
v -3.2 -8.639999 0
v -3.52 -8.639999 0
v -3.52 -8.32 0
v -3.2 -8.32 0
v -0.32 -9.28 0
v -0.64 -9.28 0
v -0.64 -8.96 0
v -0.32 -8.96 0
v -0.64 -9.28 0
v -0.96 -9.28 0
v -0.96 -8.96 0
v -0.64 -8.96 0
v -3.52 -9.599999 0
v -3.84 -9.599999 0
v -3.84 -9.28 0
v -3.52 -9.28 0
v -4.8 -9.599999 0
v -5.12 -9.599999 0
v -5.12 -9.28 0
v -4.8 -9.28 0

# Texture cooridinates (Count = 28)
vt 0.5 0.955862
vt 0.625 0.955862
vt 0.625 0.977931
vt 0.5 0.977931
vt 0.375 0.5586207
vt 0.5 0.5586207
vt 0.5 0.5806897
vt 0.375 0.5806897
vt 0.25 0.6689655
vt 0.375 0.6689655
vt 0.375 0.6910345
vt 0.25 0.6910345
vt 0 0.9117242
vt 0.125 0.9117242
vt 0.125 0.9337931
vt 0 0.9337931
vt 0.375 0.5365517
vt 0.5 0.5365517
vt 0.5 0.9337931
vt 0.625 0.9337931
vt 0.5 0.9117242
vt 0.625 0.9117242
vt 0.375 0.9117242
vt 0.375 0.9337931
vt 0.625 1
vt 0.5 1
vt 0.75 0.9117242
vt 0.75 0.9337931

# Normal
vn 0 0 -1

# Mesh description
g map_1_3_3_mesh_0021

# Faces
f 1/1/1 2/2/1 3/3/1 4/4/1
f 5/5/1 6/6/1 7/7/1 8/8/1
f 9/9/1 10/10/1 11/11/1 12/12/1
f 13/10/1 14/9/1 15/12/1 16/11/1
f 17/13/1 18/14/1 19/15/1 20/16/1
f 21/17/1 22/18/1 23/6/1 24/5/1
f 25/19/1 26/20/1 27/2/1 28/1/1
f 29/21/1 30/22/1 31/20/1 32/19/1
f 33/23/1 34/21/1 35/19/1 36/24/1
f 37/4/1 38/3/1 39/25/1 40/26/1
f 41/22/1 42/27/1 43/28/1 44/20/1
f 45/22/1 46/27/1 47/28/1 48/20/1

