# Tiled2Unity generated file. Do not modify by hand.
# Wavefront file for 'map_1_3_3_mesh_0031.obj'

# Vertices (Count = 88)
v -4.8 -0.32 0
v -5.12 -0.32 0
v -5.12 0 0
v -4.8 0 0
v -5.12 -0.32 0
v -5.44 -0.32 0
v -5.44 0 0
v -5.12 0 0
v -5.44 -0.32 0
v -5.76 -0.32 0
v -5.76 0 0
v -5.44 0 0
v -5.76 -0.32 0
v -6.08 -0.32 0
v -6.08 0 0
v -5.76 0 0
v -6.08 -0.32 0
v -6.4 -0.32 0
v -6.4 0 0
v -6.08 0 0
v -4.8 -0.64 0
v -5.12 -0.64 0
v -5.12 -0.32 0
v -4.8 -0.32 0
v -5.12 -0.64 0
v -5.44 -0.64 0
v -5.44 -0.32 0
v -5.12 -0.32 0
v -5.44 -0.64 0
v -5.76 -0.64 0
v -5.76 -0.32 0
v -5.44 -0.32 0
v -5.76 -0.64 0
v -6.08 -0.64 0
v -6.08 -0.32 0
v -5.76 -0.32 0
v -6.08 -0.64 0
v -6.4 -0.64 0
v -6.4 -0.32 0
v -6.08 -0.32 0
v -4.8 -0.96 0
v -5.12 -0.96 0
v -5.12 -0.64 0
v -4.8 -0.64 0
v -5.12 -0.96 0
v -5.44 -0.96 0
v -5.44 -0.64 0
v -5.12 -0.64 0
v -5.44 -0.96 0
v -5.76 -0.96 0
v -5.76 -0.64 0
v -5.44 -0.64 0
v -5.76 -0.96 0
v -6.08 -0.96 0
v -6.08 -0.64 0
v -5.76 -0.64 0
v -6.08 -0.96 0
v -6.4 -0.96 0
v -6.4 -0.64 0
v -6.08 -0.64 0
v -4.8 -1.28 0
v -5.12 -1.28 0
v -5.12 -0.96 0
v -4.8 -0.96 0
v -5.12 -1.28 0
v -5.44 -1.28 0
v -5.44 -0.96 0
v -5.12 -0.96 0
v -5.44 -1.28 0
v -5.76 -1.28 0
v -5.76 -0.96 0
v -5.44 -0.96 0
v -5.76 -1.28 0
v -6.08 -1.28 0
v -6.08 -0.96 0
v -5.76 -0.96 0
v -6.08 -1.28 0
v -6.4 -1.28 0
v -6.4 -0.96 0
v -6.08 -0.96 0
v -4.8 -1.6 0
v -5.12 -1.6 0
v -5.12 -1.28 0
v -4.8 -1.28 0
v -6.08 -1.6 0
v -6.4 -1.6 0
v -6.4 -1.28 0
v -6.08 -1.28 0

# Texture cooridinates (Count = 24)
vt 0.375 0.9375
vt 0.4375 0.9375
vt 0.4375 1
vt 0.375 1
vt 0.5 0.9375
vt 0.5625 0.9375
vt 0.5625 1
vt 0.5 1
vt 0.625 0.9375
vt 0.625 1
vt 0.375 0.875
vt 0.4375 0.875
vt 0.5 0.875
vt 0.5625 0.875
vt 0.625 0.875
vt 0.375 0.8125
vt 0.4375 0.8125
vt 0.5 0.8125
vt 0.5625 0.8125
vt 0.625 0.8125
vt 0.375 0.75
vt 0.4375 0.75
vt 0.5625 0.75
vt 0.625 0.75

# Normal
vn 0 0 -1

# Mesh description
g map_1_3_3_mesh_0031

# Faces
f 1/1/1 2/2/1 3/3/1 4/4/1
f 5/5/1 6/6/1 7/7/1 8/8/1
f 9/5/1 10/6/1 11/7/1 12/8/1
f 13/5/1 14/6/1 15/7/1 16/8/1
f 17/6/1 18/9/1 19/10/1 20/7/1
f 21/11/1 22/12/1 23/2/1 24/1/1
f 25/13/1 26/14/1 27/6/1 28/5/1
f 29/13/1 30/14/1 31/6/1 32/5/1
f 33/13/1 34/14/1 35/6/1 36/5/1
f 37/14/1 38/15/1 39/9/1 40/6/1
f 41/11/1 42/12/1 43/2/1 44/1/1
f 45/12/1 46/13/1 47/5/1 48/2/1
f 49/12/1 50/13/1 51/5/1 52/2/1
f 53/12/1 54/13/1 55/5/1 56/2/1
f 57/14/1 58/15/1 59/9/1 60/6/1
f 61/16/1 62/17/1 63/12/1 64/11/1
f 65/18/1 66/19/1 67/14/1 68/13/1
f 69/18/1 70/19/1 71/14/1 72/13/1
f 73/18/1 74/19/1 75/14/1 76/13/1
f 77/19/1 78/20/1 79/15/1 80/14/1
f 81/21/1 82/22/1 83/17/1 84/16/1
f 85/23/1 86/24/1 87/20/1 88/19/1

