# Tiled2Unity generated file. Do not modify by hand.
# Wavefront file for 'map_1_3_3_mesh_0012.obj'

# Vertices (Count = 88)
v -5.76 -6.08 0
v -6.08 -6.08 0
v -6.08 -5.76 0
v -5.76 -5.76 0
v -6.08 -6.08 0
v -6.4 -6.08 0
v -6.4 -5.76 0
v -6.08 -5.76 0
v -6.4 -6.08 0
v -6.72 -6.08 0
v -6.72 -5.76 0
v -6.4 -5.76 0
v -6.72 -6.08 0
v -7.04 -6.08 0
v -7.04 -5.76 0
v -6.72 -5.76 0
v -7.04 -6.08 0
v -7.36 -6.08 0
v -7.36 -5.76 0
v -7.04 -5.76 0
v -7.36 -6.08 0
v -7.68 -6.08 0
v -7.68 -5.76 0
v -7.36 -5.76 0
v -5.76 -6.4 0
v -6.08 -6.4 0
v -6.08 -6.08 0
v -5.76 -6.08 0
v -6.08 -6.4 0
v -6.4 -6.4 0
v -6.4 -6.08 0
v -6.08 -6.08 0
v -6.4 -6.4 0
v -6.72 -6.4 0
v -6.72 -6.08 0
v -6.4 -6.08 0
v -6.72 -6.4 0
v -7.04 -6.4 0
v -7.04 -6.08 0
v -6.72 -6.08 0
v -7.04 -6.4 0
v -7.36 -6.4 0
v -7.36 -6.08 0
v -7.04 -6.08 0
v -7.36 -6.4 0
v -7.68 -6.4 0
v -7.68 -6.08 0
v -7.36 -6.08 0
v -5.76 -6.72 0
v -6.08 -6.72 0
v -6.08 -6.4 0
v -5.76 -6.4 0
v -6.08 -6.72 0
v -6.4 -6.72 0
v -6.4 -6.4 0
v -6.08 -6.4 0
v -7.04 -6.72 0
v -7.36 -6.72 0
v -7.36 -6.4 0
v -7.04 -6.4 0
v -7.36 -6.72 0
v -7.68 -6.72 0
v -7.68 -6.4 0
v -7.36 -6.4 0
v -5.76 -7.04 0
v -6.08 -7.04 0
v -6.08 -6.72 0
v -5.76 -6.72 0
v -6.08 -7.04 0
v -6.4 -7.04 0
v -6.4 -6.72 0
v -6.08 -6.72 0
v -6.4 -7.04 0
v -6.72 -7.04 0
v -6.72 -6.72 0
v -6.4 -6.72 0
v -6.72 -7.04 0
v -7.04 -7.04 0
v -7.04 -6.72 0
v -6.72 -6.72 0
v -7.04 -7.04 0
v -7.36 -7.04 0
v -7.36 -6.72 0
v -7.04 -6.72 0
v -7.36 -7.04 0
v -7.68 -7.04 0
v -7.68 -6.72 0
v -7.36 -6.72 0

# Texture cooridinates (Count = 46)
vt 0 0.875
vt 0.0625 0.875
vt 0.0625 0.9375
vt 0 0.9375
vt 0.125 0.875
vt 0.125 0.9375
vt 0.1875 0.875
vt 0.1875 0.9375
vt 0.25 0.875
vt 0.25 0.9375
vt 0.3125 0.875
vt 0.3125 0.9375
vt 0.375 0.875
vt 0.375 0.9375
vt 0 0.6875
vt 0.0625 0.6875
vt 0.0625 0.75
vt 0 0.75
vt 0.125 0.6875
vt 0.125 0.75
vt 0.1875 0.6875
vt 0.25 0.6875
vt 0.25 0.75
vt 0.1875 0.75
vt 0.3125 0.6875
vt 0.3125 0.75
vt 0.375 0.6875
vt 0.375 0.75
vt 0 0.625
vt 0.0625 0.625
vt 0.125 0.625
vt 0.25 0.625
vt 0.3125 0.625
vt 0.375 0.625
vt 0 0.5625
vt 0.0625 0.5625
vt 0.125 0.5625
vt 0.875 0.125
vt 0.9375 0.125
vt 0.9375 0.1875
vt 0.875 0.1875
vt 1 0.125
vt 1 0.1875
vt 0.25 0.5625
vt 0.3125 0.5625
vt 0.375 0.5625

# Normal
vn 0 0 -1

# Mesh description
g map_1_3_3_mesh_0012

# Faces
f 1/1/1 2/2/1 3/3/1 4/4/1
f 5/2/1 6/5/1 7/6/1 8/3/1
f 9/5/1 10/7/1 11/8/1 12/6/1
f 13/7/1 14/9/1 15/10/1 16/8/1
f 17/9/1 18/11/1 19/12/1 20/10/1
f 21/11/1 22/13/1 23/14/1 24/12/1
f 25/15/1 26/16/1 27/17/1 28/18/1
f 29/16/1 30/19/1 31/20/1 32/17/1
f 33/21/1 34/22/1 35/23/1 36/24/1
f 37/19/1 38/21/1 39/24/1 40/20/1
f 41/22/1 42/25/1 43/26/1 44/23/1
f 45/25/1 46/27/1 47/28/1 48/26/1
f 49/29/1 50/30/1 51/16/1 52/15/1
f 53/30/1 54/31/1 55/19/1 56/16/1
f 57/32/1 58/33/1 59/25/1 60/22/1
f 61/33/1 62/34/1 63/27/1 64/25/1
f 65/35/1 66/36/1 67/30/1 68/29/1
f 69/36/1 70/37/1 71/31/1 72/30/1
f 73/38/1 74/39/1 75/40/1 76/41/1
f 77/39/1 78/42/1 79/43/1 80/40/1
f 81/44/1 82/45/1 83/33/1 84/32/1
f 85/45/1 86/46/1 87/34/1 88/33/1

