# Tiled2Unity generated file. Do not modify by hand.
# Wavefront file for 'map_1_3_3_mesh_0029.obj'

# Vertices (Count = 48)
v -1.92 -7.04 0
v -2.24 -7.04 0
v -2.24 -6.72 0
v -1.92 -6.72 0
v -2.24 -7.04 0
v -2.56 -7.04 0
v -2.56 -6.72 0
v -2.24 -6.72 0
v -2.56 -7.04 0
v -2.88 -7.04 0
v -2.88 -6.72 0
v -2.56 -6.72 0
v -2.88 -7.04 0
v -3.2 -7.04 0
v -3.2 -6.72 0
v -2.88 -6.72 0
v -3.52 -7.36 0
v -3.84 -7.36 0
v -3.84 -7.04 0
v -3.52 -7.04 0
v -4.8 -7.36 0
v -5.12 -7.36 0
v -5.12 -7.04 0
v -4.8 -7.04 0
v -3.52 -7.68 0
v -3.84 -7.68 0
v -3.84 -7.36 0
v -3.52 -7.36 0
v -4.8 -7.68 0
v -5.12 -7.68 0
v -5.12 -7.36 0
v -4.8 -7.36 0
v 0 -8 0
v -0.32 -8 0
v -0.32 -7.68 0
v 0 -7.68 0
v -0.32 -8.96 0
v -0.64 -8.96 0
v -0.64 -8.639999 0
v -0.32 -8.639999 0
v -3.52 -9.28 0
v -3.84 -9.28 0
v -3.84 -8.96 0
v -3.52 -8.96 0
v -4.8 -9.28 0
v -5.12 -9.28 0
v -5.12 -8.96 0
v -4.8 -8.96 0

# Texture cooridinates (Count = 26)
vt 0 0.4703448
vt 0.125 0.4703448
vt 0.125 0.4924138
vt 0 0.4924138
vt 0.25 0.4703448
vt 0.25 0.4924138
vt 0.375 0.4703448
vt 0.375 0.4924138
vt 0.25 0.7131034
vt 0.375 0.7131034
vt 0.375 0.7351724
vt 0.25 0.7351724
vt 0.25 0.6910345
vt 0.375 0.6910345
vt 0 0.9337931
vt 0.125 0.9337931
vt 0.125 0.955862
vt 0 0.955862
vt 0.375 0.9337931
vt 0.5 0.9337931
vt 0.5 0.955862
vt 0.375 0.955862
vt 0.625 0.9337931
vt 0.75 0.9337931
vt 0.75 0.955862
vt 0.625 0.955862

# Normal
vn 0 0 -1

# Mesh description
g map_1_3_3_mesh_0029

# Faces
f 1/1/1 2/2/1 3/3/1 4/4/1
f 5/2/1 6/5/1 7/6/1 8/3/1
f 9/2/1 10/5/1 11/6/1 12/3/1
f 13/5/1 14/7/1 15/8/1 16/6/1
f 17/9/1 18/10/1 19/11/1 20/12/1
f 21/10/1 22/9/1 23/12/1 24/11/1
f 25/13/1 26/14/1 27/10/1 28/9/1
f 29/14/1 30/13/1 31/9/1 32/10/1
f 33/15/1 34/16/1 35/17/1 36/18/1
f 37/19/1 38/20/1 39/21/1 40/22/1
f 41/23/1 42/24/1 43/25/1 44/26/1
f 45/23/1 46/24/1 47/25/1 48/26/1

