# Tiled2Unity generated file. Do not modify by hand.
# Wavefront file for 'map_1_3_3_mesh_0032.obj'

# Vertices (Count = 8)
v -2.24 -8 0
v -2.56 -8 0
v -2.56 -7.68 0
v -2.24 -7.68 0
v -2.24 -8.32 0
v -2.56 -8.32 0
v -2.56 -8 0
v -2.24 -8 0

# Texture cooridinates (Count = 6)
vt 0.375 0.5586207
vt 0.5 0.5586207
vt 0.5 0.5806897
vt 0.375 0.5806897
vt 0.375 0.5365517
vt 0.5 0.5365517

# Normal
vn 0 0 -1

# Mesh description
g map_1_3_3_mesh_0032

# Faces
f 1/1/1 2/2/1 3/3/1 4/4/1
f 5/5/1 6/6/1 7/2/1 8/1/1

