# Tiled2Unity generated file. Do not modify by hand.
# Wavefront file for 'map_1_3_5_mesh_0007.obj'

# Vertices (Count = 352)
v -5.44 -6.72 0
v -5.76 -6.72 0
v -5.76 -6.4 0
v -5.44 -6.4 0
v -5.76 -6.72 0
v -6.08 -6.72 0
v -6.08 -6.4 0
v -5.76 -6.4 0
v -6.08 -6.72 0
v -6.4 -6.72 0
v -6.4 -6.4 0
v -6.08 -6.4 0
v -7.04 -6.72 0
v -7.36 -6.72 0
v -7.36 -6.4 0
v -7.04 -6.4 0
v -7.36 -6.72 0
v -7.68 -6.72 0
v -7.68 -6.4 0
v -7.36 -6.4 0
v -7.68 -6.72 0
v -8 -6.72 0
v -8 -6.4 0
v -7.68 -6.4 0
v -8 -6.72 0
v -8.32 -6.72 0
v -8.32 -6.4 0
v -8 -6.4 0
v -8.32 -6.72 0
v -8.639999 -6.72 0
v -8.639999 -6.4 0
v -8.32 -6.4 0
v -8.639999 -6.72 0
v -8.96 -6.72 0
v -8.96 -6.4 0
v -8.639999 -6.4 0
v -5.44 -7.04 0
v -5.76 -7.04 0
v -5.76 -6.72 0
v -5.44 -6.72 0
v -5.76 -7.04 0
v -6.08 -7.04 0
v -6.08 -6.72 0
v -5.76 -6.72 0
v -6.08 -7.04 0
v -6.4 -7.04 0
v -6.4 -6.72 0
v -6.08 -6.72 0
v -6.4 -7.04 0
v -6.72 -7.04 0
v -6.72 -6.72 0
v -6.4 -6.72 0
v -6.72 -7.04 0
v -7.04 -7.04 0
v -7.04 -6.72 0
v -6.72 -6.72 0
v -7.04 -7.04 0
v -7.36 -7.04 0
v -7.36 -6.72 0
v -7.04 -6.72 0
v -7.36 -7.04 0
v -7.68 -7.04 0
v -7.68 -6.72 0
v -7.36 -6.72 0
v -7.68 -7.04 0
v -8 -7.04 0
v -8 -6.72 0
v -7.68 -6.72 0
v -8 -7.04 0
v -8.32 -7.04 0
v -8.32 -6.72 0
v -8 -6.72 0
v -8.32 -7.04 0
v -8.639999 -7.04 0
v -8.639999 -6.72 0
v -8.32 -6.72 0
v -8.639999 -7.04 0
v -8.96 -7.04 0
v -8.96 -6.72 0
v -8.639999 -6.72 0
v -5.44 -7.36 0
v -5.76 -7.36 0
v -5.76 -7.04 0
v -5.44 -7.04 0
v -5.76 -7.36 0
v -6.08 -7.36 0
v -6.08 -7.04 0
v -5.76 -7.04 0
v -6.08 -7.36 0
v -6.4 -7.36 0
v -6.4 -7.04 0
v -6.08 -7.04 0
v -6.4 -7.36 0
v -6.72 -7.36 0
v -6.72 -7.04 0
v -6.4 -7.04 0
v -6.72 -7.36 0
v -7.04 -7.36 0
v -7.04 -7.04 0
v -6.72 -7.04 0
v -7.04 -7.36 0
v -7.36 -7.36 0
v -7.36 -7.04 0
v -7.04 -7.04 0
v -7.36 -7.36 0
v -7.68 -7.36 0
v -7.68 -7.04 0
v -7.36 -7.04 0
v -7.68 -7.36 0
v -8 -7.36 0
v -8 -7.04 0
v -7.68 -7.04 0
v -8 -7.36 0
v -8.32 -7.36 0
v -8.32 -7.04 0
v -8 -7.04 0
v -8.32 -7.36 0
v -8.639999 -7.36 0
v -8.639999 -7.04 0
v -8.32 -7.04 0
v -8.639999 -7.36 0
v -8.96 -7.36 0
v -8.96 -7.04 0
v -8.639999 -7.04 0
v -5.44 -7.68 0
v -5.76 -7.68 0
v -5.76 -7.36 0
v -5.44 -7.36 0
v -5.76 -7.68 0
v -6.08 -7.68 0
v -6.08 -7.36 0
v -5.76 -7.36 0
v -6.08 -7.68 0
v -6.4 -7.68 0
v -6.4 -7.36 0
v -6.08 -7.36 0
v -6.4 -7.68 0
v -6.72 -7.68 0
v -6.72 -7.36 0
v -6.4 -7.36 0
v -6.72 -7.68 0
v -7.04 -7.68 0
v -7.04 -7.36 0
v -6.72 -7.36 0
v -7.04 -7.68 0
v -7.36 -7.68 0
v -7.36 -7.36 0
v -7.04 -7.36 0
v -7.36 -7.68 0
v -7.68 -7.68 0
v -7.68 -7.36 0
v -7.36 -7.36 0
v -7.68 -7.68 0
v -8 -7.68 0
v -8 -7.36 0
v -7.68 -7.36 0
v -8 -7.68 0
v -8.32 -7.68 0
v -8.32 -7.36 0
v -8 -7.36 0
v -8.32 -7.68 0
v -8.639999 -7.68 0
v -8.639999 -7.36 0
v -8.32 -7.36 0
v -8.639999 -7.68 0
v -8.96 -7.68 0
v -8.96 -7.36 0
v -8.639999 -7.36 0
v -5.44 -8 0
v -5.76 -8 0
v -5.76 -7.68 0
v -5.44 -7.68 0
v -5.76 -8 0
v -6.08 -8 0
v -6.08 -7.68 0
v -5.76 -7.68 0
v -6.08 -8 0
v -6.4 -8 0
v -6.4 -7.68 0
v -6.08 -7.68 0
v -6.4 -8 0
v -6.72 -8 0
v -6.72 -7.68 0
v -6.4 -7.68 0
v -6.72 -8 0
v -7.04 -8 0
v -7.04 -7.68 0
v -6.72 -7.68 0
v -7.04 -8 0
v -7.36 -8 0
v -7.36 -7.68 0
v -7.04 -7.68 0
v -7.36 -8 0
v -7.68 -8 0
v -7.68 -7.68 0
v -7.36 -7.68 0
v -7.68 -8 0
v -8 -8 0
v -8 -7.68 0
v -7.68 -7.68 0
v -8 -8 0
v -8.32 -8 0
v -8.32 -7.68 0
v -8 -7.68 0
v -8.32 -8 0
v -8.639999 -8 0
v -8.639999 -7.68 0
v -8.32 -7.68 0
v -8.639999 -8 0
v -8.96 -8 0
v -8.96 -7.68 0
v -8.639999 -7.68 0
v -5.44 -8.32 0
v -5.76 -8.32 0
v -5.76 -8 0
v -5.44 -8 0
v -5.76 -8.32 0
v -6.08 -8.32 0
v -6.08 -8 0
v -5.76 -8 0
v -6.72 -8.32 0
v -7.04 -8.32 0
v -7.04 -8 0
v -6.72 -8 0
v -7.04 -8.32 0
v -7.36 -8.32 0
v -7.36 -8 0
v -7.04 -8 0
v -7.36 -8.32 0
v -7.68 -8.32 0
v -7.68 -8 0
v -7.36 -8 0
v -7.68 -8.32 0
v -8 -8.32 0
v -8 -8 0
v -7.68 -8 0
v -8 -8.32 0
v -8.32 -8.32 0
v -8.32 -8 0
v -8 -8 0
v -8.32 -8.32 0
v -8.639999 -8.32 0
v -8.639999 -8 0
v -8.32 -8 0
v -8.639999 -8.32 0
v -8.96 -8.32 0
v -8.96 -8 0
v -8.639999 -8 0
v -5.44 -8.639999 0
v -5.76 -8.639999 0
v -5.76 -8.32 0
v -5.44 -8.32 0
v -5.76 -8.639999 0
v -6.08 -8.639999 0
v -6.08 -8.32 0
v -5.76 -8.32 0
v -6.08 -8.639999 0
v -6.4 -8.639999 0
v -6.4 -8.32 0
v -6.08 -8.32 0
v -6.4 -8.639999 0
v -6.72 -8.639999 0
v -6.72 -8.32 0
v -6.4 -8.32 0
v -6.72 -8.639999 0
v -7.04 -8.639999 0
v -7.04 -8.32 0
v -6.72 -8.32 0
v -7.04 -8.639999 0
v -7.36 -8.639999 0
v -7.36 -8.32 0
v -7.04 -8.32 0
v -7.36 -8.639999 0
v -7.68 -8.639999 0
v -7.68 -8.32 0
v -7.36 -8.32 0
v -7.68 -8.639999 0
v -8 -8.639999 0
v -8 -8.32 0
v -7.68 -8.32 0
v -8 -8.639999 0
v -8.32 -8.639999 0
v -8.32 -8.32 0
v -8 -8.32 0
v -8.32 -8.639999 0
v -8.639999 -8.639999 0
v -8.639999 -8.32 0
v -8.32 -8.32 0
v -8.639999 -8.639999 0
v -8.96 -8.639999 0
v -8.96 -8.32 0
v -8.639999 -8.32 0
v -7.36 -8.96 0
v -7.68 -8.96 0
v -7.68 -8.639999 0
v -7.36 -8.639999 0
v -7.68 -8.96 0
v -8 -8.96 0
v -8 -8.639999 0
v -7.68 -8.639999 0
v -8 -8.96 0
v -8.32 -8.96 0
v -8.32 -8.639999 0
v -8 -8.639999 0
v -8.32 -8.96 0
v -8.639999 -8.96 0
v -8.639999 -8.639999 0
v -8.32 -8.639999 0
v -8.639999 -8.96 0
v -8.96 -8.96 0
v -8.96 -8.639999 0
v -8.639999 -8.639999 0
v -7.36 -9.28 0
v -7.68 -9.28 0
v -7.68 -8.96 0
v -7.36 -8.96 0
v -7.68 -9.28 0
v -8 -9.28 0
v -8 -8.96 0
v -7.68 -8.96 0
v -8 -9.28 0
v -8.32 -9.28 0
v -8.32 -8.96 0
v -8 -8.96 0
v -8.32 -9.28 0
v -8.639999 -9.28 0
v -8.639999 -8.96 0
v -8.32 -8.96 0
v -8.639999 -9.28 0
v -8.96 -9.28 0
v -8.96 -8.96 0
v -8.639999 -8.96 0
v -7.36 -9.599999 0
v -7.68 -9.599999 0
v -7.68 -9.28 0
v -7.36 -9.28 0
v -7.68 -9.599999 0
v -8 -9.599999 0
v -8 -9.28 0
v -7.68 -9.28 0
v -8 -9.599999 0
v -8.32 -9.599999 0
v -8.32 -9.28 0
v -8 -9.28 0
v -8.32 -9.599999 0
v -8.639999 -9.599999 0
v -8.639999 -9.28 0
v -8.32 -9.28 0
v -8.639999 -9.599999 0
v -8.96 -9.599999 0
v -8.96 -9.28 0
v -8.639999 -9.28 0

# Texture cooridinates (Count = 92)
vt 0 0.9375
vt 0.0625 0.9375
vt 0.0625 1
vt 0 1
vt 0.125 0.9375
vt 0.125 1
vt 0.1875 0.9375
vt 0.1875 1
vt 0.25 0.9375
vt 0.25 1
vt 0.3125 0.9375
vt 0.3125 1
vt 0.375 0.9375
vt 0.375 1
vt 0 0.875
vt 0.0625 0.875
vt 0.125 0.875
vt 0.1875 0.875
vt 0.25 0.875
vt 0.3125 0.875
vt 0.375 0.875
vt 0 0.8125
vt 0.0625 0.8125
vt 0.125 0.8125
vt 0.1875 0.8125
vt 0.25 0.8125
vt 0.1875 0.75
vt 0.25 0.75
vt 0.3125 0.8125
vt 0.375 0.8125
vt 0 0.75
vt 0.0625 0.75
vt 0.125 0.75
vt 0 0.6875
vt 0.0625 0.6875
vt 0.125 0.6875
vt 0.875 0.3125
vt 0.9375 0.3125
vt 0.9375 0.375
vt 0.875 0.375
vt 1 0.3125
vt 1 0.375
vt 0.1875 0.6875
vt 0.25 0.6875
vt 0.375 0.75
vt 0.4375 0.75
vt 0.4375 0.8125
vt 0.0625 0.4375
vt 0.125 0.4375
vt 0.125 0.5
vt 0.0625 0.5
vt 0 0.625
vt 0.0625 0.625
vt 0.125 0.625
vt 0.1875 0.625
vt 0.25 0.625
vt 0 0.3125
vt 0.0625 0.3125
vt 0.0625 0.375
vt 0 0.375
vt 0 0.5625
vt 0.0625 0.5625
vt 0.125 0.5625
vt 0.875 0.125
vt 0.9375 0.125
vt 0.9375 0.1875
vt 0.875 0.1875
vt 1 0.125
vt 1 0.1875
vt 0.1875 0.5625
vt 0.25 0.5625
vt 0 0.25
vt 0.0625 0.25
vt 0.0625 0.1875
vt 0.125 0.1875
vt 0.125 0.25
vt 0.3125 0.75
vt 0.0625 0.125
vt 0.125 0.125
vt 0.3125 0.6875
vt 0.375 0.6875
vt 0 0.0625
vt 0.0625 0.0625
vt 0 0.125
vt 0.125 0.0625
vt 0.3125 0.625
vt 0.375 0.625
vt 0 0
vt 0.0625 0
vt 0.125 0
vt 0.3125 0.5625
vt 0.375 0.5625

# Normal
vn 0 0 -1

# Mesh description
g map_1_3_5_mesh_0007

# Faces
f 1/1/1 2/2/1 3/3/1 4/4/1
f 5/2/1 6/5/1 7/6/1 8/3/1
f 9/5/1 10/7/1 11/8/1 12/6/1
f 13/5/1 14/7/1 15/8/1 16/6/1
f 17/5/1 18/7/1 19/8/1 20/6/1
f 21/7/1 22/9/1 23/10/1 24/8/1
f 25/5/1 26/7/1 27/8/1 28/6/1
f 29/9/1 30/11/1 31/12/1 32/10/1
f 33/11/1 34/13/1 35/14/1 36/12/1
f 37/15/1 38/16/1 39/2/1 40/1/1
f 41/16/1 42/17/1 43/5/1 44/2/1
f 45/17/1 46/18/1 47/7/1 48/5/1
f 49/17/1 50/18/1 51/7/1 52/5/1
f 53/17/1 54/18/1 55/7/1 56/5/1
f 57/17/1 58/18/1 59/7/1 60/5/1
f 61/17/1 62/18/1 63/7/1 64/5/1
f 65/18/1 66/19/1 67/9/1 68/7/1
f 69/17/1 70/18/1 71/7/1 72/5/1
f 73/19/1 74/20/1 75/11/1 76/9/1
f 77/20/1 78/21/1 79/13/1 80/11/1
f 81/22/1 82/23/1 83/16/1 84/15/1
f 85/23/1 86/24/1 87/17/1 88/16/1
f 89/24/1 90/25/1 91/18/1 92/17/1
f 93/25/1 94/26/1 95/19/1 96/18/1
f 97/24/1 98/25/1 99/18/1 100/17/1
f 101/25/1 102/26/1 103/19/1 104/18/1
f 105/24/1 106/25/1 107/18/1 108/17/1
f 109/25/1 110/26/1 111/19/1 112/18/1
f 113/27/1 114/28/1 115/26/1 116/25/1
f 117/26/1 118/29/1 119/20/1 120/19/1
f 121/29/1 122/30/1 123/21/1 124/20/1
f 125/31/1 126/32/1 127/23/1 128/22/1
f 129/32/1 130/33/1 131/24/1 132/23/1
f 133/33/1 134/27/1 135/25/1 136/24/1
f 137/27/1 138/28/1 139/26/1 140/25/1
f 141/33/1 142/27/1 143/25/1 144/24/1
f 145/27/1 146/28/1 147/26/1 148/25/1
f 149/24/1 150/25/1 151/18/1 152/17/1
f 153/27/1 154/28/1 155/26/1 156/25/1
f 157/24/1 158/25/1 159/18/1 160/17/1
f 161/26/1 162/29/1 163/20/1 164/19/1
f 165/29/1 166/30/1 167/21/1 168/20/1
f 169/34/1 170/35/1 171/32/1 172/31/1
f 173/35/1 174/36/1 175/33/1 176/32/1
f 177/37/1 178/38/1 179/39/1 180/40/1
f 181/38/1 182/41/1 183/42/1 184/39/1
f 185/36/1 186/43/1 187/27/1 188/33/1
f 189/43/1 190/44/1 191/28/1 192/27/1
f 193/45/1 194/46/1 195/47/1 196/30/1
f 197/48/1 198/49/1 199/50/1 200/51/1
f 201/25/1 202/26/1 203/19/1 204/18/1
f 205/26/1 206/29/1 207/20/1 208/19/1
f 209/29/1 210/30/1 211/21/1 212/20/1
f 213/52/1 214/53/1 215/35/1 216/34/1
f 217/53/1 218/54/1 219/36/1 220/35/1
f 221/54/1 222/55/1 223/43/1 224/36/1
f 225/55/1 226/56/1 227/44/1 228/43/1
f 229/57/1 230/58/1 231/59/1 232/60/1
f 233/48/1 234/49/1 235/50/1 236/51/1
f 237/48/1 238/49/1 239/50/1 240/51/1
f 241/26/1 242/29/1 243/20/1 244/19/1
f 245/29/1 246/30/1 247/21/1 248/20/1
f 249/61/1 250/62/1 251/53/1 252/52/1
f 253/62/1 254/63/1 255/54/1 256/53/1
f 257/64/1 258/65/1 259/66/1 260/67/1
f 261/65/1 262/68/1 263/69/1 264/66/1
f 265/63/1 266/70/1 267/55/1 268/54/1
f 269/70/1 270/71/1 271/56/1 272/55/1
f 273/72/1 274/73/1 275/58/1 276/57/1
f 277/74/1 278/75/1 279/76/1 280/73/1
f 281/27/1 282/28/1 283/26/1 284/25/1
f 285/28/1 286/77/1 287/29/1 288/26/1
f 289/77/1 290/45/1 291/30/1 292/29/1
f 293/34/1 294/35/1 295/32/1 296/31/1
f 297/78/1 298/79/1 299/75/1 300/74/1
f 301/43/1 302/44/1 303/28/1 304/27/1
f 305/44/1 306/80/1 307/77/1 308/28/1
f 309/80/1 310/81/1 311/45/1 312/77/1
f 313/82/1 314/83/1 315/78/1 316/84/1
f 317/83/1 318/85/1 319/79/1 320/78/1
f 321/55/1 322/56/1 323/44/1 324/43/1
f 325/56/1 326/86/1 327/80/1 328/44/1
f 329/86/1 330/87/1 331/81/1 332/80/1
f 333/88/1 334/89/1 335/83/1 336/82/1
f 337/89/1 338/90/1 339/85/1 340/83/1
f 341/70/1 342/71/1 343/56/1 344/55/1
f 345/71/1 346/91/1 347/86/1 348/56/1
f 349/91/1 350/92/1 351/87/1 352/86/1

