# Tiled2Unity generated file. Do not modify by hand.
# Wavefront file for 'map_1_3_5_mesh_0014.obj'

# Vertices (Count = 12)
v -5.12 -1.92 0
v -5.44 -1.92 0
v -5.44 -1.6 0
v -5.12 -1.6 0
v -5.44 -1.92 0
v -5.76 -1.92 0
v -5.76 -1.6 0
v -5.44 -1.6 0
v -5.76 -1.92 0
v -6.08 -1.92 0
v -6.08 -1.6 0
v -5.76 -1.6 0

# Texture cooridinates (Count = 8)
vt 0.8125 0.625
vt 0.875 0.625
vt 0.875 0.6875
vt 0.8125 0.6875
vt 0.9375 0.625
vt 0.9375 0.6875
vt 1 0.625
vt 1 0.6875

# Normal
vn 0 0 -1

# Mesh description
g map_1_3_5_mesh_0014

# Faces
f 1/1/1 2/2/1 3/3/1 4/4/1
f 5/2/1 6/5/1 7/6/1 8/3/1
f 9/5/1 10/7/1 11/8/1 12/6/1

