# Tiled2Unity generated file. Do not modify by hand.
# Wavefront file for 'map_1_3_5_mesh_0011.obj'

# Vertices (Count = 152)
v -2.88 -0.96 0
v -3.2 -0.96 0
v -3.2 -0.64 0
v -2.88 -0.64 0
v -3.2 -0.96 0
v -3.52 -0.96 0
v -3.52 -0.64 0
v -3.2 -0.64 0
v -3.52 -0.96 0
v -3.84 -0.96 0
v -3.84 -0.64 0
v -3.52 -0.64 0
v -3.84 -0.96 0
v -4.16 -0.96 0
v -4.16 -0.64 0
v -3.84 -0.64 0
v -7.04 -0.96 0
v -7.36 -0.96 0
v -7.36 -0.64 0
v -7.04 -0.64 0
v -7.36 -0.96 0
v -7.68 -0.96 0
v -7.68 -0.64 0
v -7.36 -0.64 0
v -7.68 -0.96 0
v -8 -0.96 0
v -8 -0.64 0
v -7.68 -0.64 0
v -8 -0.96 0
v -8.32 -0.96 0
v -8.32 -0.64 0
v -8 -0.64 0
v -2.88 -1.28 0
v -3.2 -1.28 0
v -3.2 -0.96 0
v -2.88 -0.96 0
v -3.2 -1.28 0
v -3.52 -1.28 0
v -3.52 -0.96 0
v -3.2 -0.96 0
v -3.52 -1.28 0
v -3.84 -1.28 0
v -3.84 -0.96 0
v -3.52 -0.96 0
v -3.84 -1.28 0
v -4.16 -1.28 0
v -4.16 -0.96 0
v -3.84 -0.96 0
v -7.04 -1.28 0
v -7.36 -1.28 0
v -7.36 -0.96 0
v -7.04 -0.96 0
v -7.36 -1.28 0
v -7.68 -1.28 0
v -7.68 -0.96 0
v -7.36 -0.96 0
v -7.68 -1.28 0
v -8 -1.28 0
v -8 -0.96 0
v -7.68 -0.96 0
v -8 -1.28 0
v -8.32 -1.28 0
v -8.32 -0.96 0
v -8 -0.96 0
v -2.88 -1.6 0
v -3.2 -1.6 0
v -3.2 -1.28 0
v -2.88 -1.28 0
v -3.2 -1.6 0
v -3.52 -1.6 0
v -3.52 -1.28 0
v -3.2 -1.28 0
v -3.52 -1.6 0
v -3.84 -1.6 0
v -3.84 -1.28 0
v -3.52 -1.28 0
v -3.84 -1.6 0
v -4.16 -1.6 0
v -4.16 -1.28 0
v -3.84 -1.28 0
v -5.12 -1.6 0
v -5.44 -1.6 0
v -5.44 -1.28 0
v -5.12 -1.28 0
v -5.44 -1.6 0
v -5.76 -1.6 0
v -5.76 -1.28 0
v -5.44 -1.28 0
v -5.76 -1.6 0
v -6.08 -1.6 0
v -6.08 -1.28 0
v -5.76 -1.28 0
v -7.04 -1.6 0
v -7.36 -1.6 0
v -7.36 -1.28 0
v -7.04 -1.28 0
v -7.36 -1.6 0
v -7.68 -1.6 0
v -7.68 -1.28 0
v -7.36 -1.28 0
v -7.68 -1.6 0
v -8 -1.6 0
v -8 -1.28 0
v -7.68 -1.28 0
v -8 -1.6 0
v -8.32 -1.6 0
v -8.32 -1.28 0
v -8 -1.28 0
v -2.88 -1.92 0
v -3.2 -1.92 0
v -3.2 -1.6 0
v -2.88 -1.6 0
v -3.2 -1.92 0
v -3.52 -1.92 0
v -3.52 -1.6 0
v -3.2 -1.6 0
v -3.52 -1.92 0
v -3.84 -1.92 0
v -3.84 -1.6 0
v -3.52 -1.6 0
v -3.84 -1.92 0
v -4.16 -1.92 0
v -4.16 -1.6 0
v -3.84 -1.6 0
v -5.12 -1.92 0
v -5.44 -1.92 0
v -5.44 -1.6 0
v -5.12 -1.6 0
v -5.44 -1.92 0
v -5.76 -1.92 0
v -5.76 -1.6 0
v -5.44 -1.6 0
v -5.76 -1.92 0
v -6.08 -1.92 0
v -6.08 -1.6 0
v -5.76 -1.6 0
v -7.04 -1.92 0
v -7.36 -1.92 0
v -7.36 -1.6 0
v -7.04 -1.6 0
v -7.36 -1.92 0
v -7.68 -1.92 0
v -7.68 -1.6 0
v -7.36 -1.6 0
v -7.68 -1.92 0
v -8 -1.92 0
v -8 -1.6 0
v -7.68 -1.6 0
v -8 -1.92 0
v -8.32 -1.92 0
v -8.32 -1.6 0
v -8 -1.6 0

# Texture cooridinates (Count = 37)
vt 0.375 0.8125
vt 0.4375 0.8125
vt 0.4375 0.875
vt 0.375 0.875
vt 0.5 0.8125
vt 0.5 0.875
vt 0.5625 0.8125
vt 0.625 0.8125
vt 0.625 0.875
vt 0.5625 0.875
vt 0.375 0.75
vt 0.4375 0.75
vt 0.5 0.75
vt 0.5625 0.75
vt 0.625 0.75
vt 0.375 0.6875
vt 0.4375 0.6875
vt 0.4375 0.625
vt 0.5 0.625
vt 0.5 0.6875
vt 0.5625 0.6875
vt 0.625 0.6875
vt 0.8125 0.5
vt 0.875 0.5
vt 0.875 0.5625
vt 0.8125 0.5625
vt 0.9375 0.5
vt 0.9375 0.5625
vt 1 0.5
vt 1 0.5625
vt 0.375 0.625
vt 0.5625 0.625
vt 0.625 0.625
vt 0.8125 0.4375
vt 0.875 0.4375
vt 0.9375 0.4375
vt 1 0.4375

# Normal
vn 0 0 -1

# Mesh description
g map_1_3_5_mesh_0011

# Faces
f 1/1/1 2/2/1 3/3/1 4/4/1
f 5/2/1 6/5/1 7/6/1 8/3/1
f 9/2/1 10/5/1 11/6/1 12/3/1
f 13/7/1 14/8/1 15/9/1 16/10/1
f 17/1/1 18/2/1 19/3/1 20/4/1
f 21/2/1 22/5/1 23/6/1 24/3/1
f 25/2/1 26/5/1 27/6/1 28/3/1
f 29/7/1 30/8/1 31/9/1 32/10/1
f 33/11/1 34/12/1 35/2/1 36/1/1
f 37/12/1 38/13/1 39/5/1 40/2/1
f 41/12/1 42/13/1 43/5/1 44/2/1
f 45/14/1 46/15/1 47/8/1 48/7/1
f 49/11/1 50/12/1 51/2/1 52/1/1
f 53/12/1 54/13/1 55/5/1 56/2/1
f 57/12/1 58/13/1 59/5/1 60/2/1
f 61/14/1 62/15/1 63/8/1 64/7/1
f 65/16/1 66/17/1 67/12/1 68/11/1
f 69/18/1 70/19/1 71/20/1 72/17/1
f 73/18/1 74/19/1 75/20/1 76/17/1
f 77/21/1 78/22/1 79/15/1 80/14/1
f 81/23/1 82/24/1 83/25/1 84/26/1
f 85/24/1 86/27/1 87/28/1 88/25/1
f 89/27/1 90/29/1 91/30/1 92/28/1
f 93/16/1 94/17/1 95/12/1 96/11/1
f 97/18/1 98/19/1 99/20/1 100/17/1
f 101/18/1 102/19/1 103/20/1 104/17/1
f 105/21/1 106/22/1 107/15/1 108/14/1
f 109/31/1 110/18/1 111/17/1 112/16/1
f 113/18/1 114/19/1 115/20/1 116/17/1
f 117/18/1 118/19/1 119/20/1 120/17/1
f 121/32/1 122/33/1 123/22/1 124/21/1
f 125/34/1 126/35/1 127/24/1 128/23/1
f 129/35/1 130/36/1 131/27/1 132/24/1
f 133/36/1 134/37/1 135/29/1 136/27/1
f 137/31/1 138/18/1 139/17/1 140/16/1
f 141/18/1 142/19/1 143/20/1 144/17/1
f 145/18/1 146/19/1 147/20/1 148/17/1
f 149/32/1 150/33/1 151/22/1 152/21/1

