# Tiled2Unity generated file. Do not modify by hand.
# Wavefront file for 'WaspDungeon_mesh_0004.obj'

# Vertices (Count = 16)
v -53.76 -15.04 -0.376
v -54.08 -15.04 -0.376
v -54.08 -14.72 -0.376
v -53.76 -14.72 -0.376
v -3.84 -15.68 -0.392
v -4.16 -15.68 -0.392
v -4.16 -15.36 -0.392
v -3.84 -15.36 -0.392
v -44.16 -23.68 -0.592
v -44.48 -23.68 -0.592
v -44.48 -23.36 -0.592
v -44.16 -23.36 -0.592
v -44.8 -23.68 -0.592
v -45.12 -23.68 -0.592
v -45.12 -23.36 -0.592
v -44.8 -23.36 -0.592

# Texture cooridinates (Count = 7)
vt 0.875 0.969697
vt 1 0.969697
vt 1 1
vt 0.875 1
vt 0.75 0.9393939
vt 0.875 0.9393939
vt 0.75 0.969697

# Normal
vn 0 0 -1

# Mesh description
g WaspDungeon_mesh_0004

# Faces
f 1/1/1 2/2/1 3/3/1 4/4/1
f 5/5/1 6/6/1 7/1/1 8/7/1
f 9/1/1 10/2/1 11/3/1 12/4/1
f 13/1/1 14/2/1 15/3/1 16/4/1

