# Tiled2Unity generated file. Do not modify by hand.
# Wavefront file for 'donjonGrotte1_4_12_mesh_0034.obj'

# Vertices (Count = 40)
v -36.8 -4.48 0
v -37.12 -4.48 0
v -37.12 -4.16 0
v -36.8 -4.16 0
v -36.48 -4.48 0
v -36.8 -4.48 0
v -36.8 -4.16 0
v -36.48 -4.16 0
v -36.16 -4.48 0
v -36.48 -4.48 0
v -36.48 -4.16 0
v -36.16 -4.16 0
v -35.84 -4.48 0
v -36.16 -4.48 0
v -36.16 -4.16 0
v -35.84 -4.16 0
v -36.8 -4.16 0
v -37.12 -4.16 0
v -37.12 -3.84 0
v -36.8 -3.84 0
v -36.48 -4.16 0
v -36.8 -4.16 0
v -36.8 -3.84 0
v -36.48 -3.84 0
v -36.16 -4.16 0
v -36.48 -4.16 0
v -36.48 -3.84 0
v -36.16 -3.84 0
v -35.84 -4.16 0
v -36.16 -4.16 0
v -36.16 -3.84 0
v -35.84 -3.84 0
v -5.44 -2.56 0
v -5.76 -2.56 0
v -5.76 -2.24 0
v -5.44 -2.24 0
v -5.44 -2.24 0
v -5.76 -2.24 0
v -5.76 -1.92 0
v -5.44 -1.92 0

# Texture cooridinates (Count = 17)
vt 0.125 0.4347826
vt 0.25 0.4347826
vt 0.25 0.4782609
vt 0.125 0.4782609
vt 0 0.4347826
vt 0 0.4782609
vt 0.25 0.5217391
vt 0.125 0.5217391
vt 0 0.5217391
vt 0.75 0.6956522
vt 0.875 0.6956522
vt 0.875 0.7391304
vt 0.75 0.7391304
vt 0.625 0.08695652
vt 0.75 0.08695652
vt 0.75 0.1304348
vt 0.625 0.1304348

# Normal
vn 0 0 -1

# Mesh description
g donjonGrotte1_4_12_mesh_0034

# Faces
f 1/1/1 2/2/1 3/3/1 4/4/1
f 5/5/1 6/1/1 7/4/1 8/6/1
f 9/1/1 10/2/1 11/3/1 12/4/1
f 13/5/1 14/1/1 15/4/1 16/6/1
f 17/4/1 18/3/1 19/7/1 20/8/1
f 21/6/1 22/4/1 23/8/1 24/9/1
f 25/4/1 26/3/1 27/7/1 28/8/1
f 29/6/1 30/4/1 31/8/1 32/9/1
f 33/10/1 34/11/1 35/12/1 36/13/1
f 37/14/1 38/15/1 39/16/1 40/17/1

