# Tiled2Unity generated file. Do not modify by hand.
# Wavefront file for 'donjonGrotte1_4_12_mesh_0030.obj'

# Vertices (Count = 64)
v -59.84 -4.16 0
v -60.16 -4.16 0
v -60.16 -3.84 0
v -59.84 -3.84 0
v -59.52 -4.16 0
v -59.84 -4.16 0
v -59.84 -3.84 0
v -59.52 -3.84 0
v -59.2 -4.16 0
v -59.52 -4.16 0
v -59.52 -3.84 0
v -59.2 -3.84 0
v -58.88 -4.16 0
v -59.2 -4.16 0
v -59.2 -3.84 0
v -58.88 -3.84 0
v -57.6 -4.16 0
v -57.92 -4.16 0
v -57.92 -3.84 0
v -57.6 -3.84 0
v -57.28 -4.16 0
v -57.6 -4.16 0
v -57.6 -3.84 0
v -57.28 -3.84 0
v -56.96 -4.16 0
v -57.28 -4.16 0
v -57.28 -3.84 0
v -56.96 -3.84 0
v -56.64 -4.16 0
v -56.96 -4.16 0
v -56.96 -3.84 0
v -56.64 -3.84 0
v -59.84 -3.2 0
v -60.16 -3.2 0
v -60.16 -2.88 0
v -59.84 -2.88 0
v -59.52 -3.2 0
v -59.84 -3.2 0
v -59.84 -2.88 0
v -59.52 -2.88 0
v -59.2 -3.2 0
v -59.52 -3.2 0
v -59.52 -2.88 0
v -59.2 -2.88 0
v -58.88 -3.2 0
v -59.2 -3.2 0
v -59.2 -2.88 0
v -58.88 -2.88 0
v -57.6 -3.2 0
v -57.92 -3.2 0
v -57.92 -2.88 0
v -57.6 -2.88 0
v -57.28 -3.2 0
v -57.6 -3.2 0
v -57.6 -2.88 0
v -57.28 -2.88 0
v -56.96 -3.2 0
v -57.28 -3.2 0
v -57.28 -2.88 0
v -56.96 -2.88 0
v -56.64 -3.2 0
v -56.96 -3.2 0
v -56.96 -2.88 0
v -56.64 -2.88 0

# Texture cooridinates (Count = 8)
vt 0.6875 0.40625
vt 0.71875 0.40625
vt 0.71875 0.4375
vt 0.6875 0.4375
vt 0.625 0.40625
vt 0.65625 0.40625
vt 0.65625 0.4375
vt 0.625 0.4375

# Normal
vn 0 0 -1

# Mesh description
g donjonGrotte1_4_12_mesh_0030

# Faces
f 1/1/1 2/2/1 3/3/1 4/4/1
f 5/1/1 6/2/1 7/3/1 8/4/1
f 9/5/1 10/6/1 11/7/1 12/8/1
f 13/5/1 14/6/1 15/7/1 16/8/1
f 17/1/1 18/2/1 19/3/1 20/4/1
f 21/5/1 22/6/1 23/7/1 24/8/1
f 25/5/1 26/6/1 27/7/1 28/8/1
f 29/1/1 30/2/1 31/3/1 32/4/1
f 33/5/1 34/6/1 35/7/1 36/8/1
f 37/1/1 38/2/1 39/3/1 40/4/1
f 41/5/1 42/6/1 43/7/1 44/8/1
f 45/1/1 46/2/1 47/3/1 48/4/1
f 49/5/1 50/6/1 51/7/1 52/8/1
f 53/1/1 54/2/1 55/3/1 56/4/1
f 57/1/1 58/2/1 59/3/1 60/4/1
f 61/5/1 62/6/1 63/7/1 64/8/1

