# Tiled2Unity generated file. Do not modify by hand.
# Wavefront file for 'donjonGrotte1_4_12_mesh_0028.obj'

# Vertices (Count = 480)
v -46.4 -4.8 0
v -46.72 -4.8 0
v -46.72 -4.48 0
v -46.4 -4.48 0
v -38.72 -4.8 0
v -39.04 -4.8 0
v -39.04 -4.48 0
v -38.72 -4.48 0
v -38.4 -4.8 0
v -38.72 -4.8 0
v -38.72 -4.48 0
v -38.4 -4.48 0
v -17.28 -4.48 0
v -17.6 -4.48 0
v -17.6 -4.16 0
v -17.28 -4.16 0
v -16.64 -4.48 0
v -16.96 -4.48 0
v -16.96 -4.16 0
v -16.64 -4.16 0
v -16 -4.48 0
v -16.32 -4.48 0
v -16.32 -4.16 0
v -16 -4.16 0
v -15.36 -4.48 0
v -15.68 -4.48 0
v -15.68 -4.16 0
v -15.36 -4.16 0
v -14.72 -4.48 0
v -15.04 -4.48 0
v -15.04 -4.16 0
v -14.72 -4.16 0
v -14.08 -4.48 0
v -14.4 -4.48 0
v -14.4 -4.16 0
v -14.08 -4.16 0
v -48.64 -4.16 0
v -48.96 -4.16 0
v -48.96 -3.84 0
v -48.64 -3.84 0
v -47.36 -4.16 0
v -47.68 -4.16 0
v -47.68 -3.84 0
v -47.36 -3.84 0
v -38.72 -4.16 0
v -39.04 -4.16 0
v -39.04 -3.84 0
v -38.72 -3.84 0
v -38.4 -4.16 0
v -38.72 -4.16 0
v -38.72 -3.84 0
v -38.4 -3.84 0
v -26.56 -4.16 0
v -26.88 -4.16 0
v -26.88 -3.84 0
v -26.56 -3.84 0
v -25.28 -4.16 0
v -25.6 -4.16 0
v -25.6 -3.84 0
v -25.28 -3.84 0
v -17.28 -4.16 0
v -17.6 -4.16 0
v -17.6 -3.84 0
v -17.28 -3.84 0
v -16.64 -4.16 0
v -16.96 -4.16 0
v -16.96 -3.84 0
v -16.64 -3.84 0
v -16 -4.16 0
v -16.32 -4.16 0
v -16.32 -3.84 0
v -16 -3.84 0
v -15.36 -4.16 0
v -15.68 -4.16 0
v -15.68 -3.84 0
v -15.36 -3.84 0
v -14.72 -4.16 0
v -15.04 -4.16 0
v -15.04 -3.84 0
v -14.72 -3.84 0
v -14.08 -4.16 0
v -14.4 -4.16 0
v -14.4 -3.84 0
v -14.08 -3.84 0
v -49.28 -3.84 0
v -49.6 -3.84 0
v -49.6 -3.52 0
v -49.28 -3.52 0
v -48.64 -3.84 0
v -48.96 -3.84 0
v -48.96 -3.52 0
v -48.64 -3.52 0
v -47.36 -3.84 0
v -47.68 -3.84 0
v -47.68 -3.52 0
v -47.36 -3.52 0
v -46.72 -3.84 0
v -47.04 -3.84 0
v -47.04 -3.52 0
v -46.72 -3.52 0
v -36.8 -3.84 0
v -37.12 -3.84 0
v -37.12 -3.52 0
v -36.8 -3.52 0
v -36.48 -3.84 0
v -36.8 -3.84 0
v -36.8 -3.52 0
v -36.48 -3.52 0
v -36.16 -3.84 0
v -36.48 -3.84 0
v -36.48 -3.52 0
v -36.16 -3.52 0
v -35.84 -3.84 0
v -36.16 -3.84 0
v -36.16 -3.52 0
v -35.84 -3.52 0
v -26.56 -3.84 0
v -26.88 -3.84 0
v -26.88 -3.52 0
v -26.56 -3.52 0
v -26.24 -3.84 0
v -26.56 -3.84 0
v -26.56 -3.52 0
v -26.24 -3.52 0
v -25.28 -3.84 0
v -25.6 -3.84 0
v -25.6 -3.52 0
v -25.28 -3.52 0
v -17.28 -3.84 0
v -17.6 -3.84 0
v -17.6 -3.52 0
v -17.28 -3.52 0
v -16.64 -3.84 0
v -16.96 -3.84 0
v -16.96 -3.52 0
v -16.64 -3.52 0
v -16 -3.84 0
v -16.32 -3.84 0
v -16.32 -3.52 0
v -16 -3.52 0
v -15.36 -3.84 0
v -15.68 -3.84 0
v -15.68 -3.52 0
v -15.36 -3.52 0
v -14.72 -3.84 0
v -15.04 -3.84 0
v -15.04 -3.52 0
v -14.72 -3.52 0
v -14.08 -3.84 0
v -14.4 -3.84 0
v -14.4 -3.52 0
v -14.08 -3.52 0
v -48.64 -3.52 0
v -48.96 -3.52 0
v -48.96 -3.2 0
v -48.64 -3.2 0
v -47.36 -3.52 0
v -47.68 -3.52 0
v -47.68 -3.2 0
v -47.36 -3.2 0
v -36.8 -3.52 0
v -37.12 -3.52 0
v -37.12 -3.2 0
v -36.8 -3.2 0
v -36.48 -3.52 0
v -36.8 -3.52 0
v -36.8 -3.2 0
v -36.48 -3.2 0
v -36.16 -3.52 0
v -36.48 -3.52 0
v -36.48 -3.2 0
v -36.16 -3.2 0
v -35.84 -3.52 0
v -36.16 -3.52 0
v -36.16 -3.2 0
v -35.84 -3.2 0
v -26.56 -3.52 0
v -26.88 -3.52 0
v -26.88 -3.2 0
v -26.56 -3.2 0
v -25.28 -3.52 0
v -25.6 -3.52 0
v -25.6 -3.2 0
v -25.28 -3.2 0
v -17.28 -3.52 0
v -17.6 -3.52 0
v -17.6 -3.2 0
v -17.28 -3.2 0
v -16.64 -3.52 0
v -16.96 -3.52 0
v -16.96 -3.2 0
v -16.64 -3.2 0
v -16 -3.52 0
v -16.32 -3.52 0
v -16.32 -3.2 0
v -16 -3.2 0
v -15.36 -3.52 0
v -15.68 -3.52 0
v -15.68 -3.2 0
v -15.36 -3.2 0
v -14.72 -3.52 0
v -15.04 -3.52 0
v -15.04 -3.2 0
v -14.72 -3.2 0
v -14.08 -3.52 0
v -14.4 -3.52 0
v -14.4 -3.2 0
v -14.08 -3.2 0
v -48.64 -3.2 0
v -48.96 -3.2 0
v -48.96 -2.88 0
v -48.64 -2.88 0
v -47.36 -3.2 0
v -47.68 -3.2 0
v -47.68 -2.88 0
v -47.36 -2.88 0
v -38.72 -3.2 0
v -39.04 -3.2 0
v -39.04 -2.88 0
v -38.72 -2.88 0
v -38.4 -3.2 0
v -38.72 -3.2 0
v -38.72 -2.88 0
v -38.4 -2.88 0
v -26.56 -3.2 0
v -26.88 -3.2 0
v -26.88 -2.88 0
v -26.56 -2.88 0
v -25.28 -3.2 0
v -25.6 -3.2 0
v -25.6 -2.88 0
v -25.28 -2.88 0
v -17.28 -3.2 0
v -17.6 -3.2 0
v -17.6 -2.88 0
v -17.28 -2.88 0
v -16.64 -3.2 0
v -16.96 -3.2 0
v -16.96 -2.88 0
v -16.64 -2.88 0
v -16 -3.2 0
v -16.32 -3.2 0
v -16.32 -2.88 0
v -16 -2.88 0
v -15.36 -3.2 0
v -15.68 -3.2 0
v -15.68 -2.88 0
v -15.36 -2.88 0
v -14.72 -3.2 0
v -15.04 -3.2 0
v -15.04 -2.88 0
v -14.72 -2.88 0
v -14.08 -3.2 0
v -14.4 -3.2 0
v -14.4 -2.88 0
v -14.08 -2.88 0
v -58.24 -2.88 0
v -58.56 -2.88 0
v -58.56 -2.56 0
v -58.24 -2.56 0
v -48.64 -2.88 0
v -48.96 -2.88 0
v -48.96 -2.56 0
v -48.64 -2.56 0
v -47.36 -2.88 0
v -47.68 -2.88 0
v -47.68 -2.56 0
v -47.36 -2.56 0
v -26.56 -2.88 0
v -26.88 -2.88 0
v -26.88 -2.56 0
v -26.56 -2.56 0
v -25.28 -2.88 0
v -25.6 -2.88 0
v -25.6 -2.56 0
v -25.28 -2.56 0
v -17.28 -2.88 0
v -17.6 -2.88 0
v -17.6 -2.56 0
v -17.28 -2.56 0
v -16.64 -2.88 0
v -16.96 -2.88 0
v -16.96 -2.56 0
v -16.64 -2.56 0
v -16 -2.88 0
v -16.32 -2.88 0
v -16.32 -2.56 0
v -16 -2.56 0
v -15.36 -2.88 0
v -15.68 -2.88 0
v -15.68 -2.56 0
v -15.36 -2.56 0
v -14.72 -2.88 0
v -15.04 -2.88 0
v -15.04 -2.56 0
v -14.72 -2.56 0
v -14.08 -2.88 0
v -14.4 -2.88 0
v -14.4 -2.56 0
v -14.08 -2.56 0
v -49.6 -2.56 0
v -49.92 -2.56 0
v -49.92 -2.24 0
v -49.6 -2.24 0
v -47.04 -2.56 0
v -47.36 -2.56 0
v -47.36 -2.24 0
v -47.04 -2.24 0
v -17.28 -2.56 0
v -17.6 -2.56 0
v -17.6 -2.24 0
v -17.28 -2.24 0
v -16.64 -2.56 0
v -16.96 -2.56 0
v -16.96 -2.24 0
v -16.64 -2.24 0
v -16 -2.56 0
v -16.32 -2.56 0
v -16.32 -2.24 0
v -16 -2.24 0
v -15.36 -2.56 0
v -15.68 -2.56 0
v -15.68 -2.24 0
v -15.36 -2.24 0
v -14.72 -2.56 0
v -15.04 -2.56 0
v -15.04 -2.24 0
v -14.72 -2.24 0
v -14.08 -2.56 0
v -14.4 -2.56 0
v -14.4 -2.24 0
v -14.08 -2.24 0
v -5.76 -2.56 0
v -6.08 -2.56 0
v -6.08 -2.24 0
v -5.76 -2.24 0
v -5.44 -2.56 0
v -5.76 -2.56 0
v -5.76 -2.24 0
v -5.44 -2.24 0
v -5.12 -2.56 0
v -5.44 -2.56 0
v -5.44 -2.24 0
v -5.12 -2.24 0
v -17.28 -2.24 0
v -17.6 -2.24 0
v -17.6 -1.92 0
v -17.28 -1.92 0
v -16.64 -2.24 0
v -16.96 -2.24 0
v -16.96 -1.92 0
v -16.64 -1.92 0
v -16 -2.24 0
v -16.32 -2.24 0
v -16.32 -1.92 0
v -16 -1.92 0
v -15.36 -2.24 0
v -15.68 -2.24 0
v -15.68 -1.92 0
v -15.36 -1.92 0
v -14.72 -2.24 0
v -15.04 -2.24 0
v -15.04 -1.92 0
v -14.72 -1.92 0
v -14.08 -2.24 0
v -14.4 -2.24 0
v -14.4 -1.92 0
v -14.08 -1.92 0
v -7.04 -2.24 0
v -7.36 -2.24 0
v -7.36 -1.92 0
v -7.04 -1.92 0
v -6.72 -2.24 0
v -7.04 -2.24 0
v -7.04 -1.92 0
v -6.72 -1.92 0
v -6.4 -2.24 0
v -6.72 -2.24 0
v -6.72 -1.92 0
v -6.4 -1.92 0
v -6.08 -2.24 0
v -6.4 -2.24 0
v -6.4 -1.92 0
v -6.08 -1.92 0
v -5.76 -2.24 0
v -6.08 -2.24 0
v -6.08 -1.92 0
v -5.76 -1.92 0
v -5.44 -2.24 0
v -5.76 -2.24 0
v -5.76 -1.92 0
v -5.44 -1.92 0
v -5.12 -2.24 0
v -5.44 -2.24 0
v -5.44 -1.92 0
v -5.12 -1.92 0
v -4.8 -2.24 0
v -5.12 -2.24 0
v -5.12 -1.92 0
v -4.8 -1.92 0
v -4.48 -2.24 0
v -4.8 -2.24 0
v -4.8 -1.92 0
v -4.48 -1.92 0
v -4.16 -2.24 0
v -4.48 -2.24 0
v -4.48 -1.92 0
v -4.16 -1.92 0
v -3.84 -2.24 0
v -4.16 -2.24 0
v -4.16 -1.92 0
v -3.84 -1.92 0
v -17.28 -1.92 0
v -17.6 -1.92 0
v -17.6 -1.6 0
v -17.28 -1.6 0
v -16.64 -1.92 0
v -16.96 -1.92 0
v -16.96 -1.6 0
v -16.64 -1.6 0
v -16 -1.92 0
v -16.32 -1.92 0
v -16.32 -1.6 0
v -16 -1.6 0
v -15.36 -1.92 0
v -15.68 -1.92 0
v -15.68 -1.6 0
v -15.36 -1.6 0
v -14.72 -1.92 0
v -15.04 -1.92 0
v -15.04 -1.6 0
v -14.72 -1.6 0
v -14.08 -1.92 0
v -14.4 -1.92 0
v -14.4 -1.6 0
v -14.08 -1.6 0
v -7.04 -1.92 0
v -7.36 -1.92 0
v -7.36 -1.6 0
v -7.04 -1.6 0
v -6.72 -1.92 0
v -7.04 -1.92 0
v -7.04 -1.6 0
v -6.72 -1.6 0
v -6.4 -1.92 0
v -6.72 -1.92 0
v -6.72 -1.6 0
v -6.4 -1.6 0
v -6.08 -1.92 0
v -6.4 -1.92 0
v -6.4 -1.6 0
v -6.08 -1.6 0
v -5.76 -1.92 0
v -6.08 -1.92 0
v -6.08 -1.6 0
v -5.76 -1.6 0
v -5.44 -1.92 0
v -5.76 -1.92 0
v -5.76 -1.6 0
v -5.44 -1.6 0
v -5.12 -1.92 0
v -5.44 -1.92 0
v -5.44 -1.6 0
v -5.12 -1.6 0
v -4.8 -1.92 0
v -5.12 -1.92 0
v -5.12 -1.6 0
v -4.8 -1.6 0
v -4.48 -1.92 0
v -4.8 -1.92 0
v -4.8 -1.6 0
v -4.48 -1.6 0
v -4.16 -1.92 0
v -4.48 -1.92 0
v -4.48 -1.6 0
v -4.16 -1.6 0
v -3.84 -1.92 0
v -4.16 -1.92 0
v -4.16 -1.6 0
v -3.84 -1.6 0

# Texture cooridinates (Count = 61)
vt 0.875 0.08695652
vt 1 0.08695652
vt 1 0.1304348
vt 0.875 0.1304348
vt 0.5 0
vt 0.625 0
vt 0.625 0.04347826
vt 0.5 0.04347826
vt 0.375 0
vt 0.375 0.04347826
vt 0.875 0.5217391
vt 1 0.5217391
vt 1 0.5652174
vt 0.875 0.5652174
vt 0.75 0.5217391
vt 0.75 0.5652174
vt 0.625 0.5217391
vt 0.625 0.5652174
vt 1 0.6086956
vt 0.875 0.6086956
vt 0.75 0.6956522
vt 0.875 0.6956522
vt 0.875 0.7391304
vt 0.75 0.7391304
vt 0.125 0.4347826
vt 0.25 0.4347826
vt 0.25 0.4782609
vt 0.125 0.4782609
vt 0 0.4347826
vt 0 0.4782609
vt 0.75 0.08695652
vt 0.75 0.1304348
vt 1 0.6521739
vt 0.875 0.6521739
vt 0.25 0.5217391
vt 0.125 0.5217391
vt 0 0.5217391
vt 0.75 0.6086956
vt 0.75 0.6521739
vt 0.625 0.6086956
vt 0.625 0.6521739
vt 0.625 0.08695652
vt 0.625 0.1304348
vt 0.25 0.6956522
vt 0.375 0.6956522
vt 0.375 0.7391304
vt 0.25 0.7391304
vt 0.125 0.6956522
vt 0.125 0.7391304
vt 0 0.6956522
vt 0 0.7391304
vt 0.75 0
vt 0.75 0.04347826
vt 0.375 0.7826087
vt 0.25 0.7826087
vt 0.125 0.7826087
vt 0 0.7826087
vt 0.375 0.8260869
vt 0.25 0.8260869
vt 0.125 0.8260869
vt 0 0.8260869

# Normal
vn 0 0 -1

# Mesh description
g donjonGrotte1_4_12_mesh_0028

# Faces
f 1/1/1 2/2/1 3/3/1 4/4/1
f 5/5/1 6/6/1 7/7/1 8/8/1
f 9/9/1 10/5/1 11/8/1 12/10/1
f 13/11/1 14/12/1 15/13/1 16/14/1
f 17/11/1 18/12/1 19/13/1 20/14/1
f 21/11/1 22/12/1 23/13/1 24/14/1
f 25/11/1 26/12/1 27/13/1 28/14/1
f 29/11/1 30/12/1 31/13/1 32/14/1
f 33/11/1 34/12/1 35/13/1 36/14/1
f 37/1/1 38/2/1 39/3/1 40/4/1
f 41/1/1 42/2/1 43/3/1 44/4/1
f 45/15/1 46/11/1 47/14/1 48/16/1
f 49/17/1 50/15/1 51/16/1 52/18/1
f 53/1/1 54/2/1 55/3/1 56/4/1
f 57/1/1 58/2/1 59/3/1 60/4/1
f 61/14/1 62/13/1 63/19/1 64/20/1
f 65/14/1 66/13/1 67/19/1 68/20/1
f 69/14/1 70/13/1 71/19/1 72/20/1
f 73/14/1 74/13/1 75/19/1 76/20/1
f 77/14/1 78/13/1 79/19/1 80/20/1
f 81/14/1 82/13/1 83/19/1 84/20/1
f 85/1/1 86/2/1 87/3/1 88/4/1
f 89/21/1 90/22/1 91/23/1 92/24/1
f 93/21/1 94/22/1 95/23/1 96/24/1
f 97/1/1 98/2/1 99/3/1 100/4/1
f 101/25/1 102/26/1 103/27/1 104/28/1
f 105/29/1 106/25/1 107/28/1 108/30/1
f 109/25/1 110/26/1 111/27/1 112/28/1
f 113/29/1 114/25/1 115/28/1 116/30/1
f 117/21/1 118/22/1 119/23/1 120/24/1
f 121/31/1 122/1/1 123/4/1 124/32/1
f 125/21/1 126/22/1 127/23/1 128/24/1
f 129/20/1 130/19/1 131/33/1 132/34/1
f 133/20/1 134/19/1 135/33/1 136/34/1
f 137/20/1 138/19/1 139/33/1 140/34/1
f 141/20/1 142/19/1 143/33/1 144/34/1
f 145/20/1 146/19/1 147/33/1 148/34/1
f 149/20/1 150/19/1 151/33/1 152/34/1
f 153/21/1 154/22/1 155/23/1 156/24/1
f 157/21/1 158/22/1 159/23/1 160/24/1
f 161/28/1 162/27/1 163/35/1 164/36/1
f 165/30/1 166/28/1 167/36/1 168/37/1
f 169/28/1 170/27/1 171/35/1 172/36/1
f 173/30/1 174/28/1 175/36/1 176/37/1
f 177/21/1 178/22/1 179/23/1 180/24/1
f 181/21/1 182/22/1 183/23/1 184/24/1
f 185/11/1 186/12/1 187/13/1 188/14/1
f 189/11/1 190/12/1 191/13/1 192/14/1
f 193/11/1 194/12/1 195/13/1 196/14/1
f 197/11/1 198/12/1 199/13/1 200/14/1
f 201/11/1 202/12/1 203/13/1 204/14/1
f 205/11/1 206/12/1 207/13/1 208/14/1
f 209/21/1 210/22/1 211/23/1 212/24/1
f 213/21/1 214/22/1 215/23/1 216/24/1
f 217/38/1 218/20/1 219/34/1 220/39/1
f 221/40/1 222/38/1 223/39/1 224/41/1
f 225/21/1 226/22/1 227/23/1 228/24/1
f 229/21/1 230/22/1 231/23/1 232/24/1
f 233/14/1 234/13/1 235/19/1 236/20/1
f 237/14/1 238/13/1 239/19/1 240/20/1
f 241/14/1 242/13/1 243/19/1 244/20/1
f 245/14/1 246/13/1 247/19/1 248/20/1
f 249/14/1 250/13/1 251/19/1 252/20/1
f 253/14/1 254/13/1 255/19/1 256/20/1
f 257/42/1 258/31/1 259/32/1 260/43/1
f 261/1/1 262/2/1 263/3/1 264/4/1
f 265/1/1 266/2/1 267/3/1 268/4/1
f 269/1/1 270/2/1 271/3/1 272/4/1
f 273/1/1 274/2/1 275/3/1 276/4/1
f 277/20/1 278/19/1 279/33/1 280/34/1
f 281/20/1 282/19/1 283/33/1 284/34/1
f 285/20/1 286/19/1 287/33/1 288/34/1
f 289/20/1 290/19/1 291/33/1 292/34/1
f 293/20/1 294/19/1 295/33/1 296/34/1
f 297/20/1 298/19/1 299/33/1 300/34/1
f 301/1/1 302/2/1 303/3/1 304/4/1
f 305/1/1 306/2/1 307/3/1 308/4/1
f 309/11/1 310/12/1 311/13/1 312/14/1
f 313/11/1 314/12/1 315/13/1 316/14/1
f 317/11/1 318/12/1 319/13/1 320/14/1
f 321/11/1 322/12/1 323/13/1 324/14/1
f 325/11/1 326/12/1 327/13/1 328/14/1
f 329/11/1 330/12/1 331/13/1 332/14/1
f 333/44/1 334/45/1 335/46/1 336/47/1
f 337/48/1 338/44/1 339/47/1 340/49/1
f 341/50/1 342/48/1 343/49/1 344/51/1
f 345/14/1 346/13/1 347/19/1 348/20/1
f 349/14/1 350/13/1 351/19/1 352/20/1
f 353/14/1 354/13/1 355/19/1 356/20/1
f 357/14/1 358/13/1 359/19/1 360/20/1
f 361/14/1 362/13/1 363/19/1 364/20/1
f 365/14/1 366/13/1 367/19/1 368/20/1
f 369/6/1 370/52/1 371/53/1 372/7/1
f 373/6/1 374/52/1 375/53/1 376/7/1
f 377/6/1 378/52/1 379/53/1 380/7/1
f 381/6/1 382/52/1 383/53/1 384/7/1
f 385/47/1 386/46/1 387/54/1 388/55/1
f 389/49/1 390/47/1 391/55/1 392/56/1
f 393/51/1 394/49/1 395/56/1 396/57/1
f 397/6/1 398/52/1 399/53/1 400/7/1
f 401/6/1 402/52/1 403/53/1 404/7/1
f 405/6/1 406/52/1 407/53/1 408/7/1
f 409/6/1 410/52/1 411/53/1 412/7/1
f 413/20/1 414/19/1 415/33/1 416/34/1
f 417/20/1 418/19/1 419/33/1 420/34/1
f 421/20/1 422/19/1 423/33/1 424/34/1
f 425/20/1 426/19/1 427/33/1 428/34/1
f 429/20/1 430/19/1 431/33/1 432/34/1
f 433/20/1 434/19/1 435/33/1 436/34/1
f 437/7/1 438/53/1 439/31/1 440/42/1
f 441/7/1 442/53/1 443/31/1 444/42/1
f 445/7/1 446/53/1 447/31/1 448/42/1
f 449/7/1 450/53/1 451/31/1 452/42/1
f 453/55/1 454/54/1 455/58/1 456/59/1
f 457/56/1 458/55/1 459/59/1 460/60/1
f 461/57/1 462/56/1 463/60/1 464/61/1
f 465/7/1 466/53/1 467/31/1 468/42/1
f 469/7/1 470/53/1 471/31/1 472/42/1
f 473/7/1 474/53/1 475/31/1 476/42/1
f 477/7/1 478/53/1 479/31/1 480/42/1

