# Tiled2Unity generated file. Do not modify by hand.
# Wavefront file for 'donjonGrotte1_4_12_mesh_0045.obj'

# Vertices (Count = 72)
v -38.72 -4.48 0
v -39.04 -4.48 0
v -39.04 -4.16 0
v -38.72 -4.16 0
v -38.4 -4.48 0
v -38.72 -4.48 0
v -38.72 -4.16 0
v -38.4 -4.16 0
v -38.72 -3.84 0
v -39.04 -3.84 0
v -39.04 -3.52 0
v -38.72 -3.52 0
v -38.4 -3.84 0
v -38.72 -3.84 0
v -38.72 -3.52 0
v -38.4 -3.52 0
v -36.8 -3.84 0
v -37.12 -3.84 0
v -37.12 -3.52 0
v -36.8 -3.52 0
v -36.48 -3.84 0
v -36.8 -3.84 0
v -36.8 -3.52 0
v -36.48 -3.52 0
v -36.16 -3.84 0
v -36.48 -3.84 0
v -36.48 -3.52 0
v -36.16 -3.52 0
v -35.84 -3.84 0
v -36.16 -3.84 0
v -36.16 -3.52 0
v -35.84 -3.52 0
v -36.8 -3.2 0
v -37.12 -3.2 0
v -37.12 -2.88 0
v -36.8 -2.88 0
v -36.48 -3.2 0
v -36.8 -3.2 0
v -36.8 -2.88 0
v -36.48 -2.88 0
v -36.16 -3.2 0
v -36.48 -3.2 0
v -36.48 -2.88 0
v -36.16 -2.88 0
v -35.84 -3.2 0
v -36.16 -3.2 0
v -36.16 -2.88 0
v -35.84 -2.88 0
v -38.72 -2.88 0
v -39.04 -2.88 0
v -39.04 -2.56 0
v -38.72 -2.56 0
v -38.4 -2.88 0
v -38.72 -2.88 0
v -38.72 -2.56 0
v -38.4 -2.56 0
v -36.8 -2.56 0
v -37.12 -2.56 0
v -37.12 -2.24 0
v -36.8 -2.24 0
v -36.48 -2.56 0
v -36.8 -2.56 0
v -36.8 -2.24 0
v -36.48 -2.24 0
v -36.16 -2.56 0
v -36.48 -2.56 0
v -36.48 -2.24 0
v -36.16 -2.24 0
v -35.84 -2.56 0
v -36.16 -2.56 0
v -36.16 -2.24 0
v -35.84 -2.24 0

# Texture cooridinates (Count = 24)
vt 0.5 0.04347826
vt 0.625 0.04347826
vt 0.625 0.08695652
vt 0.5 0.08695652
vt 0.375 0.04347826
vt 0.375 0.08695652
vt 0.75 0.5652174
vt 0.875 0.5652174
vt 0.875 0.6086956
vt 0.75 0.6086956
vt 0.625 0.5652174
vt 0.625 0.6086956
vt 0.125 0.5217391
vt 0.25 0.5217391
vt 0.25 0.5652174
vt 0.125 0.5652174
vt 0 0.5217391
vt 0 0.5652174
vt 0.75 0.6521739
vt 0.875 0.6521739
vt 0.875 0.6956522
vt 0.75 0.6956522
vt 0.625 0.6521739
vt 0.625 0.6956522

# Normal
vn 0 0 -1

# Mesh description
g donjonGrotte1_4_12_mesh_0045

# Faces
f 1/1/1 2/2/1 3/3/1 4/4/1
f 5/5/1 6/1/1 7/4/1 8/6/1
f 9/7/1 10/8/1 11/9/1 12/10/1
f 13/11/1 14/7/1 15/10/1 16/12/1
f 17/13/1 18/14/1 19/15/1 20/16/1
f 21/17/1 22/13/1 23/16/1 24/18/1
f 25/13/1 26/14/1 27/15/1 28/16/1
f 29/17/1 30/13/1 31/16/1 32/18/1
f 33/13/1 34/14/1 35/15/1 36/16/1
f 37/17/1 38/13/1 39/16/1 40/18/1
f 41/13/1 42/14/1 43/15/1 44/16/1
f 45/17/1 46/13/1 47/16/1 48/18/1
f 49/19/1 50/20/1 51/21/1 52/22/1
f 53/23/1 54/19/1 55/22/1 56/24/1
f 57/13/1 58/14/1 59/15/1 60/16/1
f 61/17/1 62/13/1 63/16/1 64/18/1
f 65/13/1 66/14/1 67/15/1 68/16/1
f 69/17/1 70/13/1 71/16/1 72/18/1

