# Tiled2Unity generated file. Do not modify by hand.
# Wavefront file for 'donjonGrotte1_4_12_mesh_0005.obj'

# Vertices (Count = 24)
v -58.24 -5.12 0
v -58.56 -5.12 0
v -58.56 -4.8 0
v -58.24 -4.8 0
v -48 -5.12 0
v -48.32 -5.12 0
v -48.32 -4.8 0
v -48 -4.8 0
v -37.44 -5.12 0
v -37.76 -5.12 0
v -37.76 -4.8 0
v -37.44 -4.8 0
v -25.92 -5.12 0
v -26.24 -5.12 0
v -26.24 -4.8 0
v -25.92 -4.8 0
v -15.68 -5.12 0
v -16 -5.12 0
v -16 -4.8 0
v -15.68 -4.8 0
v -5.44 -5.12 0
v -5.76 -5.12 0
v -5.76 -4.8 0
v -5.44 -4.8 0

# Texture cooridinates (Count = 4)
vt 0 0
vt 1 0
vt 1 1
vt 0 1

# Normal
vn 0 0 -1

# Mesh description
g donjonGrotte1_4_12_mesh_0005

# Faces
f 1/1/1 2/2/1 3/3/1 4/4/1
f 5/1/1 6/2/1 7/3/1 8/4/1
f 9/1/1 10/2/1 11/3/1 12/4/1
f 13/1/1 14/2/1 15/3/1 16/4/1
f 17/1/1 18/2/1 19/3/1 20/4/1
f 21/1/1 22/2/1 23/3/1 24/4/1

