# Tiled2Unity generated file. Do not modify by hand.
# Wavefront file for 'donjonGrotte1_4_12_mesh_0046.obj'

# Vertices (Count = 52)
v -3.2 -37.76 0
v -3.52 -37.76 0
v -3.52 -37.44 0
v -3.2 -37.44 0
v -2.88 -37.76 0
v -3.2 -37.76 0
v -3.2 -37.44 0
v -2.88 -37.44 0
v -22.72 -30.72 0
v -23.04 -30.72 0
v -23.04 -30.4 0
v -22.72 -30.4 0
v -22.4 -30.72 0
v -22.72 -30.72 0
v -22.72 -30.4 0
v -22.4 -30.4 0
v -21.44 -21.76 0
v -21.76 -21.76 0
v -21.76 -21.44 0
v -21.44 -21.44 0
v -19.52 -21.12 0
v -19.84 -21.12 0
v -19.84 -20.8 0
v -19.52 -20.8 0
v -19.2 -21.12 0
v -19.52 -21.12 0
v -19.52 -20.8 0
v -19.2 -20.8 0
v -44.16 -11.2 0
v -44.48 -11.2 0
v -44.48 -10.88 0
v -44.16 -10.88 0
v -43.84 -11.2 0
v -44.16 -11.2 0
v -44.16 -10.88 0
v -43.84 -10.88 0
v -30.08 -11.2 0
v -30.4 -11.2 0
v -30.4 -10.88 0
v -30.08 -10.88 0
v -29.76 -11.2 0
v -30.08 -11.2 0
v -30.08 -10.88 0
v -29.76 -10.88 0
v -3.84 -11.2 0
v -4.16 -11.2 0
v -4.16 -10.88 0
v -3.84 -10.88 0
v -3.52 -11.2 0
v -3.84 -11.2 0
v -3.84 -10.88 0
v -3.52 -10.88 0

# Texture cooridinates (Count = 10)
vt 0.75 0.5
vt 1 0.5
vt 1 1
vt 0.75 1
vt 0.5 0.5
vt 0.5 1
vt 0 0.5
vt 0.25 0.5
vt 0.25 1
vt 0 1

# Normal
vn 0 0 -1

# Mesh description
g donjonGrotte1_4_12_mesh_0046

# Faces
f 1/1/1 2/2/1 3/3/1 4/4/1
f 5/5/1 6/1/1 7/4/1 8/6/1
f 9/1/1 10/2/1 11/3/1 12/4/1
f 13/5/1 14/1/1 15/4/1 16/6/1
f 17/7/1 18/8/1 19/9/1 20/10/1
f 21/1/1 22/2/1 23/3/1 24/4/1
f 25/5/1 26/1/1 27/4/1 28/6/1
f 29/1/1 30/2/1 31/3/1 32/4/1
f 33/5/1 34/1/1 35/4/1 36/6/1
f 37/1/1 38/2/1 39/3/1 40/4/1
f 41/5/1 42/1/1 43/4/1 44/6/1
f 45/1/1 46/2/1 47/3/1 48/4/1
f 49/5/1 50/1/1 51/4/1 52/6/1

