# Tiled2Unity generated file. Do not modify by hand.
# Wavefront file for 'donjonGrotte1_4_12_mesh_0012.obj'

# Vertices (Count = 432)
v -29.44 -37.44 0
v -29.76 -37.44 0
v -29.76 -37.12 0
v -29.44 -37.12 0
v -29.12 -37.44 0
v -29.44 -37.44 0
v -29.44 -37.12 0
v -29.12 -37.12 0
v -28.8 -37.44 0
v -29.12 -37.44 0
v -29.12 -37.12 0
v -28.8 -37.12 0
v -26.56 -37.44 0
v -26.88 -37.44 0
v -26.88 -37.12 0
v -26.56 -37.12 0
v -26.24 -37.44 0
v -26.56 -37.44 0
v -26.56 -37.12 0
v -26.24 -37.12 0
v -25.92 -37.44 0
v -26.24 -37.44 0
v -26.24 -37.12 0
v -25.92 -37.12 0
v -15.36 -37.44 0
v -15.68 -37.44 0
v -15.68 -37.12 0
v -15.36 -37.12 0
v -15.04 -37.44 0
v -15.36 -37.44 0
v -15.36 -37.12 0
v -15.04 -37.12 0
v -14.72 -37.44 0
v -15.04 -37.44 0
v -15.04 -37.12 0
v -14.72 -37.12 0
v -12.48 -37.44 0
v -12.8 -37.44 0
v -12.8 -37.12 0
v -12.48 -37.12 0
v -12.16 -37.44 0
v -12.48 -37.44 0
v -12.48 -37.12 0
v -12.16 -37.12 0
v -11.84 -37.44 0
v -12.16 -37.44 0
v -12.16 -37.12 0
v -11.84 -37.12 0
v -49.92 -37.12 0
v -50.24 -37.12 0
v -50.24 -36.8 0
v -49.92 -36.8 0
v -49.6 -37.12 0
v -49.92 -37.12 0
v -49.92 -36.8 0
v -49.6 -36.8 0
v -49.28 -37.12 0
v -49.6 -37.12 0
v -49.6 -36.8 0
v -49.28 -36.8 0
v -47.04 -37.12 0
v -47.36 -37.12 0
v -47.36 -36.8 0
v -47.04 -36.8 0
v -46.72 -37.12 0
v -47.04 -37.12 0
v -47.04 -36.8 0
v -46.72 -36.8 0
v -46.4 -37.12 0
v -46.72 -37.12 0
v -46.72 -36.8 0
v -46.4 -36.8 0
v -29.44 -37.12 0
v -29.76 -37.12 0
v -29.76 -36.8 0
v -29.44 -36.8 0
v -29.12 -37.12 0
v -29.44 -37.12 0
v -29.44 -36.8 0
v -29.12 -36.8 0
v -28.8 -37.12 0
v -29.12 -37.12 0
v -29.12 -36.8 0
v -28.8 -36.8 0
v -26.56 -37.12 0
v -26.88 -37.12 0
v -26.88 -36.8 0
v -26.56 -36.8 0
v -26.24 -37.12 0
v -26.56 -37.12 0
v -26.56 -36.8 0
v -26.24 -36.8 0
v -25.92 -37.12 0
v -26.24 -37.12 0
v -26.24 -36.8 0
v -25.92 -36.8 0
v -15.36 -37.12 0
v -15.68 -37.12 0
v -15.68 -36.8 0
v -15.36 -36.8 0
v -15.04 -37.12 0
v -15.36 -37.12 0
v -15.36 -36.8 0
v -15.04 -36.8 0
v -14.72 -37.12 0
v -15.04 -37.12 0
v -15.04 -36.8 0
v -14.72 -36.8 0
v -12.48 -37.12 0
v -12.8 -37.12 0
v -12.8 -36.8 0
v -12.48 -36.8 0
v -12.16 -37.12 0
v -12.48 -37.12 0
v -12.48 -36.8 0
v -12.16 -36.8 0
v -11.84 -37.12 0
v -12.16 -37.12 0
v -12.16 -36.8 0
v -11.84 -36.8 0
v -49.92 -36.8 0
v -50.24 -36.8 0
v -50.24 -36.48 0
v -49.92 -36.48 0
v -49.6 -36.8 0
v -49.92 -36.8 0
v -49.92 -36.48 0
v -49.6 -36.48 0
v -49.28 -36.8 0
v -49.6 -36.8 0
v -49.6 -36.48 0
v -49.28 -36.48 0
v -47.04 -36.8 0
v -47.36 -36.8 0
v -47.36 -36.48 0
v -47.04 -36.48 0
v -46.72 -36.8 0
v -47.04 -36.8 0
v -47.04 -36.48 0
v -46.72 -36.48 0
v -46.4 -36.8 0
v -46.72 -36.8 0
v -46.72 -36.48 0
v -46.4 -36.48 0
v -29.44 -36.8 0
v -29.76 -36.8 0
v -29.76 -36.48 0
v -29.44 -36.48 0
v -29.12 -36.8 0
v -29.44 -36.8 0
v -29.44 -36.48 0
v -29.12 -36.48 0
v -28.8 -36.8 0
v -29.12 -36.8 0
v -29.12 -36.48 0
v -28.8 -36.48 0
v -26.56 -36.8 0
v -26.88 -36.8 0
v -26.88 -36.48 0
v -26.56 -36.48 0
v -26.24 -36.8 0
v -26.56 -36.8 0
v -26.56 -36.48 0
v -26.24 -36.48 0
v -25.92 -36.8 0
v -26.24 -36.8 0
v -26.24 -36.48 0
v -25.92 -36.48 0
v -15.36 -36.8 0
v -15.68 -36.8 0
v -15.68 -36.48 0
v -15.36 -36.48 0
v -15.04 -36.8 0
v -15.36 -36.8 0
v -15.36 -36.48 0
v -15.04 -36.48 0
v -14.72 -36.8 0
v -15.04 -36.8 0
v -15.04 -36.48 0
v -14.72 -36.48 0
v -12.48 -36.8 0
v -12.8 -36.8 0
v -12.8 -36.48 0
v -12.48 -36.48 0
v -12.16 -36.8 0
v -12.48 -36.8 0
v -12.48 -36.48 0
v -12.16 -36.48 0
v -11.84 -36.8 0
v -12.16 -36.8 0
v -12.16 -36.48 0
v -11.84 -36.48 0
v -49.92 -36.48 0
v -50.24 -36.48 0
v -50.24 -36.16 0
v -49.92 -36.16 0
v -49.6 -36.48 0
v -49.92 -36.48 0
v -49.92 -36.16 0
v -49.6 -36.16 0
v -49.28 -36.48 0
v -49.6 -36.48 0
v -49.6 -36.16 0
v -49.28 -36.16 0
v -47.04 -36.48 0
v -47.36 -36.48 0
v -47.36 -36.16 0
v -47.04 -36.16 0
v -46.72 -36.48 0
v -47.04 -36.48 0
v -47.04 -36.16 0
v -46.72 -36.16 0
v -46.4 -36.48 0
v -46.72 -36.48 0
v -46.72 -36.16 0
v -46.4 -36.16 0
v -33.28 -21.44 0
v -33.6 -21.44 0
v -33.6 -21.12 0
v -33.28 -21.12 0
v -32.96 -21.44 0
v -33.28 -21.44 0
v -33.28 -21.12 0
v -32.96 -21.12 0
v -32.64 -21.44 0
v -32.96 -21.44 0
v -32.96 -21.12 0
v -32.64 -21.12 0
v -30.4 -21.44 0
v -30.72 -21.44 0
v -30.72 -21.12 0
v -30.4 -21.12 0
v -30.08 -21.44 0
v -30.4 -21.44 0
v -30.4 -21.12 0
v -30.08 -21.12 0
v -29.76 -21.44 0
v -30.08 -21.44 0
v -30.08 -21.12 0
v -29.76 -21.12 0
v -12.48 -21.44 0
v -12.8 -21.44 0
v -12.8 -21.12 0
v -12.48 -21.12 0
v -12.16 -21.44 0
v -12.48 -21.44 0
v -12.48 -21.12 0
v -12.16 -21.12 0
v -11.84 -21.44 0
v -12.16 -21.44 0
v -12.16 -21.12 0
v -11.84 -21.12 0
v -9.599999 -21.44 0
v -9.92 -21.44 0
v -9.92 -21.12 0
v -9.599999 -21.12 0
v -9.28 -21.44 0
v -9.599999 -21.44 0
v -9.599999 -21.12 0
v -9.28 -21.12 0
v -8.96 -21.44 0
v -9.28 -21.44 0
v -9.28 -21.12 0
v -8.96 -21.12 0
v -33.28 -21.12 0
v -33.6 -21.12 0
v -33.6 -20.8 0
v -33.28 -20.8 0
v -32.96 -21.12 0
v -33.28 -21.12 0
v -33.28 -20.8 0
v -32.96 -20.8 0
v -32.64 -21.12 0
v -32.96 -21.12 0
v -32.96 -20.8 0
v -32.64 -20.8 0
v -30.4 -21.12 0
v -30.72 -21.12 0
v -30.72 -20.8 0
v -30.4 -20.8 0
v -30.08 -21.12 0
v -30.4 -21.12 0
v -30.4 -20.8 0
v -30.08 -20.8 0
v -29.76 -21.12 0
v -30.08 -21.12 0
v -30.08 -20.8 0
v -29.76 -20.8 0
v -12.48 -21.12 0
v -12.8 -21.12 0
v -12.8 -20.8 0
v -12.48 -20.8 0
v -12.16 -21.12 0
v -12.48 -21.12 0
v -12.48 -20.8 0
v -12.16 -20.8 0
v -11.84 -21.12 0
v -12.16 -21.12 0
v -12.16 -20.8 0
v -11.84 -20.8 0
v -9.599999 -21.12 0
v -9.92 -21.12 0
v -9.92 -20.8 0
v -9.599999 -20.8 0
v -9.28 -21.12 0
v -9.599999 -21.12 0
v -9.599999 -20.8 0
v -9.28 -20.8 0
v -8.96 -21.12 0
v -9.28 -21.12 0
v -9.28 -20.8 0
v -8.96 -20.8 0
v -33.28 -20.8 0
v -33.6 -20.8 0
v -33.6 -20.48 0
v -33.28 -20.48 0
v -32.96 -20.8 0
v -33.28 -20.8 0
v -33.28 -20.48 0
v -32.96 -20.48 0
v -32.64 -20.8 0
v -32.96 -20.8 0
v -32.96 -20.48 0
v -32.64 -20.48 0
v -30.4 -20.8 0
v -30.72 -20.8 0
v -30.72 -20.48 0
v -30.4 -20.48 0
v -30.08 -20.8 0
v -30.4 -20.8 0
v -30.4 -20.48 0
v -30.08 -20.48 0
v -29.76 -20.8 0
v -30.08 -20.8 0
v -30.08 -20.48 0
v -29.76 -20.48 0
v -12.48 -20.8 0
v -12.8 -20.8 0
v -12.8 -20.48 0
v -12.48 -20.48 0
v -12.16 -20.8 0
v -12.48 -20.8 0
v -12.48 -20.48 0
v -12.16 -20.48 0
v -11.84 -20.8 0
v -12.16 -20.8 0
v -12.16 -20.48 0
v -11.84 -20.48 0
v -9.599999 -20.8 0
v -9.92 -20.8 0
v -9.92 -20.48 0
v -9.599999 -20.48 0
v -9.28 -20.8 0
v -9.599999 -20.8 0
v -9.599999 -20.48 0
v -9.28 -20.48 0
v -8.96 -20.8 0
v -9.28 -20.8 0
v -9.28 -20.48 0
v -8.96 -20.48 0
v -18.56 -11.52 0
v -18.88 -11.52 0
v -18.88 -11.2 0
v -18.56 -11.2 0
v -18.24 -11.52 0
v -18.56 -11.52 0
v -18.56 -11.2 0
v -18.24 -11.2 0
v -17.92 -11.52 0
v -18.24 -11.52 0
v -18.24 -11.2 0
v -17.92 -11.2 0
v -15.68 -11.52 0
v -16 -11.52 0
v -16 -11.2 0
v -15.68 -11.2 0
v -15.36 -11.52 0
v -15.68 -11.52 0
v -15.68 -11.2 0
v -15.36 -11.2 0
v -15.04 -11.52 0
v -15.36 -11.52 0
v -15.36 -11.2 0
v -15.04 -11.2 0
v -18.56 -11.2 0
v -18.88 -11.2 0
v -18.88 -10.88 0
v -18.56 -10.88 0
v -18.24 -11.2 0
v -18.56 -11.2 0
v -18.56 -10.88 0
v -18.24 -10.88 0
v -17.92 -11.2 0
v -18.24 -11.2 0
v -18.24 -10.88 0
v -17.92 -10.88 0
v -15.68 -11.2 0
v -16 -11.2 0
v -16 -10.88 0
v -15.68 -10.88 0
v -15.36 -11.2 0
v -15.68 -11.2 0
v -15.68 -10.88 0
v -15.36 -10.88 0
v -15.04 -11.2 0
v -15.36 -11.2 0
v -15.36 -10.88 0
v -15.04 -10.88 0
v -18.56 -10.88 0
v -18.88 -10.88 0
v -18.88 -10.56 0
v -18.56 -10.56 0
v -18.24 -10.88 0
v -18.56 -10.88 0
v -18.56 -10.56 0
v -18.24 -10.56 0
v -17.92 -10.88 0
v -18.24 -10.88 0
v -18.24 -10.56 0
v -17.92 -10.56 0
v -15.68 -10.88 0
v -16 -10.88 0
v -16 -10.56 0
v -15.68 -10.56 0
v -15.36 -10.88 0
v -15.68 -10.88 0
v -15.68 -10.56 0
v -15.36 -10.56 0
v -15.04 -10.88 0
v -15.36 -10.88 0
v -15.36 -10.56 0
v -15.04 -10.56 0

# Texture cooridinates (Count = 16)
vt 0.6666667 0
vt 1 0
vt 1 0.3333333
vt 0.6666667 0.3333333
vt 0.3333333 0
vt 0.3333333 0.3333333
vt 0 0
vt 0 0.3333333
vt 1 0.6666667
vt 0.6666667 0.6666667
vt 0.3333333 0.6666667
vt 0 0.6666667
vt 1 1
vt 0.6666667 1
vt 0.3333333 1
vt 0 1

# Normal
vn 0 0 -1

# Mesh description
g donjonGrotte1_4_12_mesh_0012

# Faces
f 1/1/1 2/2/1 3/3/1 4/4/1
f 5/5/1 6/1/1 7/4/1 8/6/1
f 9/7/1 10/5/1 11/6/1 12/8/1
f 13/1/1 14/2/1 15/3/1 16/4/1
f 17/5/1 18/1/1 19/4/1 20/6/1
f 21/7/1 22/5/1 23/6/1 24/8/1
f 25/1/1 26/2/1 27/3/1 28/4/1
f 29/5/1 30/1/1 31/4/1 32/6/1
f 33/7/1 34/5/1 35/6/1 36/8/1
f 37/1/1 38/2/1 39/3/1 40/4/1
f 41/5/1 42/1/1 43/4/1 44/6/1
f 45/7/1 46/5/1 47/6/1 48/8/1
f 49/1/1 50/2/1 51/3/1 52/4/1
f 53/5/1 54/1/1 55/4/1 56/6/1
f 57/7/1 58/5/1 59/6/1 60/8/1
f 61/1/1 62/2/1 63/3/1 64/4/1
f 65/5/1 66/1/1 67/4/1 68/6/1
f 69/7/1 70/5/1 71/6/1 72/8/1
f 73/4/1 74/3/1 75/9/1 76/10/1
f 77/6/1 78/4/1 79/10/1 80/11/1
f 81/8/1 82/6/1 83/11/1 84/12/1
f 85/4/1 86/3/1 87/9/1 88/10/1
f 89/6/1 90/4/1 91/10/1 92/11/1
f 93/8/1 94/6/1 95/11/1 96/12/1
f 97/4/1 98/3/1 99/9/1 100/10/1
f 101/6/1 102/4/1 103/10/1 104/11/1
f 105/8/1 106/6/1 107/11/1 108/12/1
f 109/4/1 110/3/1 111/9/1 112/10/1
f 113/6/1 114/4/1 115/10/1 116/11/1
f 117/8/1 118/6/1 119/11/1 120/12/1
f 121/4/1 122/3/1 123/9/1 124/10/1
f 125/6/1 126/4/1 127/10/1 128/11/1
f 129/8/1 130/6/1 131/11/1 132/12/1
f 133/4/1 134/3/1 135/9/1 136/10/1
f 137/6/1 138/4/1 139/10/1 140/11/1
f 141/8/1 142/6/1 143/11/1 144/12/1
f 145/10/1 146/9/1 147/13/1 148/14/1
f 149/11/1 150/10/1 151/14/1 152/15/1
f 153/12/1 154/11/1 155/15/1 156/16/1
f 157/10/1 158/9/1 159/13/1 160/14/1
f 161/11/1 162/10/1 163/14/1 164/15/1
f 165/12/1 166/11/1 167/15/1 168/16/1
f 169/10/1 170/9/1 171/13/1 172/14/1
f 173/11/1 174/10/1 175/14/1 176/15/1
f 177/12/1 178/11/1 179/15/1 180/16/1
f 181/10/1 182/9/1 183/13/1 184/14/1
f 185/11/1 186/10/1 187/14/1 188/15/1
f 189/12/1 190/11/1 191/15/1 192/16/1
f 193/10/1 194/9/1 195/13/1 196/14/1
f 197/11/1 198/10/1 199/14/1 200/15/1
f 201/12/1 202/11/1 203/15/1 204/16/1
f 205/10/1 206/9/1 207/13/1 208/14/1
f 209/11/1 210/10/1 211/14/1 212/15/1
f 213/12/1 214/11/1 215/15/1 216/16/1
f 217/1/1 218/2/1 219/3/1 220/4/1
f 221/5/1 222/1/1 223/4/1 224/6/1
f 225/7/1 226/5/1 227/6/1 228/8/1
f 229/1/1 230/2/1 231/3/1 232/4/1
f 233/5/1 234/1/1 235/4/1 236/6/1
f 237/7/1 238/5/1 239/6/1 240/8/1
f 241/1/1 242/2/1 243/3/1 244/4/1
f 245/5/1 246/1/1 247/4/1 248/6/1
f 249/7/1 250/5/1 251/6/1 252/8/1
f 253/1/1 254/2/1 255/3/1 256/4/1
f 257/5/1 258/1/1 259/4/1 260/6/1
f 261/7/1 262/5/1 263/6/1 264/8/1
f 265/4/1 266/3/1 267/9/1 268/10/1
f 269/6/1 270/4/1 271/10/1 272/11/1
f 273/8/1 274/6/1 275/11/1 276/12/1
f 277/4/1 278/3/1 279/9/1 280/10/1
f 281/6/1 282/4/1 283/10/1 284/11/1
f 285/8/1 286/6/1 287/11/1 288/12/1
f 289/4/1 290/3/1 291/9/1 292/10/1
f 293/6/1 294/4/1 295/10/1 296/11/1
f 297/8/1 298/6/1 299/11/1 300/12/1
f 301/4/1 302/3/1 303/9/1 304/10/1
f 305/6/1 306/4/1 307/10/1 308/11/1
f 309/8/1 310/6/1 311/11/1 312/12/1
f 313/10/1 314/9/1 315/13/1 316/14/1
f 317/11/1 318/10/1 319/14/1 320/15/1
f 321/12/1 322/11/1 323/15/1 324/16/1
f 325/10/1 326/9/1 327/13/1 328/14/1
f 329/11/1 330/10/1 331/14/1 332/15/1
f 333/12/1 334/11/1 335/15/1 336/16/1
f 337/10/1 338/9/1 339/13/1 340/14/1
f 341/11/1 342/10/1 343/14/1 344/15/1
f 345/12/1 346/11/1 347/15/1 348/16/1
f 349/10/1 350/9/1 351/13/1 352/14/1
f 353/11/1 354/10/1 355/14/1 356/15/1
f 357/12/1 358/11/1 359/15/1 360/16/1
f 361/1/1 362/2/1 363/3/1 364/4/1
f 365/5/1 366/1/1 367/4/1 368/6/1
f 369/7/1 370/5/1 371/6/1 372/8/1
f 373/1/1 374/2/1 375/3/1 376/4/1
f 377/5/1 378/1/1 379/4/1 380/6/1
f 381/7/1 382/5/1 383/6/1 384/8/1
f 385/4/1 386/3/1 387/9/1 388/10/1
f 389/6/1 390/4/1 391/10/1 392/11/1
f 393/8/1 394/6/1 395/11/1 396/12/1
f 397/4/1 398/3/1 399/9/1 400/10/1
f 401/6/1 402/4/1 403/10/1 404/11/1
f 405/8/1 406/6/1 407/11/1 408/12/1
f 409/10/1 410/9/1 411/13/1 412/14/1
f 413/11/1 414/10/1 415/14/1 416/15/1
f 417/12/1 418/11/1 419/15/1 420/16/1
f 421/10/1 422/9/1 423/13/1 424/14/1
f 425/11/1 426/10/1 427/14/1 428/15/1
f 429/12/1 430/11/1 431/15/1 432/16/1

