# Tiled2Unity generated file. Do not modify by hand.
# Wavefront file for 'donjonGrotte1_4_12_mesh_0047.obj'

# Vertices (Count = 24)
v -1.92 -38.08 0
v -2.24 -38.08 0
v -2.24 -37.76 0
v -1.92 -37.76 0
v -23.68 -31.04 0
v -24 -31.04 0
v -24 -30.72 0
v -23.68 -30.72 0
v -20.48 -21.44 0
v -20.8 -21.44 0
v -20.8 -21.12 0
v -20.48 -21.12 0
v -45.12 -11.52 0
v -45.44 -11.52 0
v -45.44 -11.2 0
v -45.12 -11.2 0
v -31.04 -11.52 0
v -31.36 -11.52 0
v -31.36 -11.2 0
v -31.04 -11.2 0
v -2.56 -11.52 0
v -2.88 -11.52 0
v -2.88 -11.2 0
v -2.56 -11.2 0

# Texture cooridinates (Count = 4)
vt 0.6666667 0
vt 1 0
vt 1 1
vt 0.6666667 1

# Normal
vn 0 0 -1

# Mesh description
g donjonGrotte1_4_12_mesh_0047

# Faces
f 1/1/1 2/2/1 3/3/1 4/4/1
f 5/1/1 6/2/1 7/3/1 8/4/1
f 9/1/1 10/2/1 11/3/1 12/4/1
f 13/1/1 14/2/1 15/3/1 16/4/1
f 17/1/1 18/2/1 19/3/1 20/4/1
f 21/1/1 22/2/1 23/3/1 24/4/1

