# Tiled2Unity generated file. Do not modify by hand.
# Wavefront file for 'donjonGrotte1_4_12_mesh_0031.obj'

# Vertices (Count = 48)
v -21.12 -37.12 0
v -21.44 -37.12 0
v -21.44 -36.8 0
v -21.12 -36.8 0
v -5.12 -37.12 0
v -5.44 -37.12 0
v -5.44 -36.8 0
v -5.12 -36.8 0
v -56.32 -36.8 0
v -56.64 -36.8 0
v -56.64 -36.48 0
v -56.32 -36.48 0
v -39.36 -36.8 0
v -39.68 -36.8 0
v -39.68 -36.48 0
v -39.36 -36.48 0
v -21.12 -35.52 0
v -21.44 -35.52 0
v -21.44 -35.2 0
v -21.12 -35.2 0
v -56.32 -31.04 0
v -56.64 -31.04 0
v -56.64 -30.72 0
v -56.32 -30.72 0
v -39.36 -25.28 0
v -39.68 -25.28 0
v -39.68 -24.96 0
v -39.36 -24.96 0
v -5.12 -25.28 0
v -5.44 -25.28 0
v -5.44 -24.96 0
v -5.12 -24.96 0
v -42.56 -21.12 0
v -42.88 -21.12 0
v -42.88 -20.8 0
v -42.56 -20.8 0
v -5.12 -21.12 0
v -5.44 -21.12 0
v -5.44 -20.8 0
v -5.12 -20.8 0
v -42.56 -16 0
v -42.88 -16 0
v -42.88 -15.68 0
v -42.56 -15.68 0
v -5.12 -16 0
v -5.44 -16 0
v -5.44 -15.68 0
v -5.12 -15.68 0

# Texture cooridinates (Count = 6)
vt 0.875 0.8125
vt 0.9166667 0.8125
vt 0.9166667 0.875
vt 0.875 0.875
vt 0.9166667 0.9375
vt 0.875 0.9375

# Normal
vn 0 0 -1

# Mesh description
g donjonGrotte1_4_12_mesh_0031

# Faces
f 1/1/1 2/2/1 3/3/1 4/4/1
f 5/1/1 6/2/1 7/3/1 8/4/1
f 9/1/1 10/2/1 11/3/1 12/4/1
f 13/1/1 14/2/1 15/3/1 16/4/1
f 17/4/1 18/3/1 19/5/1 20/6/1
f 21/1/1 22/2/1 23/3/1 24/4/1
f 25/1/1 26/2/1 27/3/1 28/4/1
f 29/1/1 30/2/1 31/3/1 32/4/1
f 33/1/1 34/2/1 35/3/1 36/4/1
f 37/1/1 38/2/1 39/3/1 40/4/1
f 41/1/1 42/2/1 43/3/1 44/4/1
f 45/1/1 46/2/1 47/3/1 48/4/1

