# Tiled2Unity generated file. Do not modify by hand.
# Wavefront file for 'donjonGrotte1_4_12_mesh_0027.obj'

# Vertices (Count = 68)
v -56.96 -39.68 0
v -57.28 -39.68 0
v -57.28 -39.36 0
v -56.96 -39.36 0
v -48 -39.68 0
v -48.32 -39.68 0
v -48.32 -39.36 0
v -48 -39.36 0
v -44.8 -39.36 0
v -45.12 -39.36 0
v -45.12 -39.04 0
v -44.8 -39.04 0
v -40.96 -39.36 0
v -41.28 -39.36 0
v -41.28 -39.04 0
v -40.96 -39.04 0
v -52.8 -39.04 0
v -53.12 -39.04 0
v -53.12 -38.72 0
v -52.8 -38.72 0
v -49.92 -38.72 0
v -50.24 -38.72 0
v -50.24 -38.4 0
v -49.92 -38.4 0
v -43.2 -38.72 0
v -43.52 -38.72 0
v -43.52 -38.4 0
v -43.2 -38.4 0
v -40.32 -38.4 0
v -40.64 -38.4 0
v -40.64 -38.08 0
v -40.32 -38.08 0
v -55.36 -38.08 0
v -55.68 -38.08 0
v -55.68 -37.76 0
v -55.36 -37.76 0
v -47.04 -38.08 0
v -47.36 -38.08 0
v -47.36 -37.76 0
v -47.04 -37.76 0
v -51.84 -37.76 0
v -52.16 -37.76 0
v -52.16 -37.44 0
v -51.84 -37.44 0
v -42.24 -37.44 0
v -42.56 -37.44 0
v -42.56 -37.12 0
v -42.24 -37.12 0
v -57.28 -36.16 0
v -57.6 -36.16 0
v -57.6 -35.84 0
v -57.28 -35.84 0
v -55.68 -34.56 0
v -56 -34.56 0
v -56 -34.24 0
v -55.68 -34.24 0
v -56.96 -32.96 0
v -57.28 -32.96 0
v -57.28 -32.64 0
v -56.96 -32.64 0
v -56 -32 0
v -56.32 -32 0
v -56.32 -31.68 0
v -56 -31.68 0
v -39.68 -31.04 0
v -40 -31.04 0
v -40 -30.72 0
v -39.68 -30.72 0

# Texture cooridinates (Count = 4)
vt 0.9583333 0.8125
vt 1 0.8125
vt 1 0.875
vt 0.9583333 0.875

# Normal
vn 0 0 -1

# Mesh description
g donjonGrotte1_4_12_mesh_0027

# Faces
f 1/1/1 2/2/1 3/3/1 4/4/1
f 5/1/1 6/2/1 7/3/1 8/4/1
f 9/1/1 10/2/1 11/3/1 12/4/1
f 13/1/1 14/2/1 15/3/1 16/4/1
f 17/1/1 18/2/1 19/3/1 20/4/1
f 21/1/1 22/2/1 23/3/1 24/4/1
f 25/1/1 26/2/1 27/3/1 28/4/1
f 29/1/1 30/2/1 31/3/1 32/4/1
f 33/1/1 34/2/1 35/3/1 36/4/1
f 37/1/1 38/2/1 39/3/1 40/4/1
f 41/1/1 42/2/1 43/3/1 44/4/1
f 45/1/1 46/2/1 47/3/1 48/4/1
f 49/1/1 50/2/1 51/3/1 52/4/1
f 53/1/1 54/2/1 55/3/1 56/4/1
f 57/1/1 58/2/1 59/3/1 60/4/1
f 61/1/1 62/2/1 63/3/1 64/4/1
f 65/1/1 66/2/1 67/3/1 68/4/1

