# Tiled2Unity generated file. Do not modify by hand.
# Wavefront file for 'donjonGrotte1_4_12_mesh_0029.obj'

# Vertices (Count = 80)
v -48.64 -2.24 0
v -48.96 -2.24 0
v -48.96 -1.92 0
v -48.64 -1.92 0
v -48.32 -2.24 0
v -48.64 -2.24 0
v -48.64 -1.92 0
v -48.32 -1.92 0
v -48 -2.24 0
v -48.32 -2.24 0
v -48.32 -1.92 0
v -48 -1.92 0
v -47.68 -2.24 0
v -48 -2.24 0
v -48 -1.92 0
v -47.68 -1.92 0
v -47.36 -2.24 0
v -47.68 -2.24 0
v -47.68 -1.92 0
v -47.36 -1.92 0
v -26.56 -2.24 0
v -26.88 -2.24 0
v -26.88 -1.92 0
v -26.56 -1.92 0
v -26.24 -2.24 0
v -26.56 -2.24 0
v -26.56 -1.92 0
v -26.24 -1.92 0
v -25.92 -2.24 0
v -26.24 -2.24 0
v -26.24 -1.92 0
v -25.92 -1.92 0
v -25.6 -2.24 0
v -25.92 -2.24 0
v -25.92 -1.92 0
v -25.6 -1.92 0
v -25.28 -2.24 0
v -25.6 -2.24 0
v -25.6 -1.92 0
v -25.28 -1.92 0
v -48.64 -1.92 0
v -48.96 -1.92 0
v -48.96 -1.6 0
v -48.64 -1.6 0
v -48.32 -1.92 0
v -48.64 -1.92 0
v -48.64 -1.6 0
v -48.32 -1.6 0
v -48 -1.92 0
v -48.32 -1.92 0
v -48.32 -1.6 0
v -48 -1.6 0
v -47.68 -1.92 0
v -48 -1.92 0
v -48 -1.6 0
v -47.68 -1.6 0
v -47.36 -1.92 0
v -47.68 -1.92 0
v -47.68 -1.6 0
v -47.36 -1.6 0
v -26.56 -1.92 0
v -26.88 -1.92 0
v -26.88 -1.6 0
v -26.56 -1.6 0
v -26.24 -1.92 0
v -26.56 -1.92 0
v -26.56 -1.6 0
v -26.24 -1.6 0
v -25.92 -1.92 0
v -26.24 -1.92 0
v -26.24 -1.6 0
v -25.92 -1.6 0
v -25.6 -1.92 0
v -25.92 -1.92 0
v -25.92 -1.6 0
v -25.6 -1.6 0
v -25.28 -1.92 0
v -25.6 -1.92 0
v -25.6 -1.6 0
v -25.28 -1.6 0

# Texture cooridinates (Count = 6)
vt 0 0
vt 0.25 0
vt 0.25 0.5
vt 0 0.5
vt 0.25 1
vt 0 1

# Normal
vn 0 0 -1

# Mesh description
g donjonGrotte1_4_12_mesh_0029

# Faces
f 1/1/1 2/2/1 3/3/1 4/4/1
f 5/1/1 6/2/1 7/3/1 8/4/1
f 9/1/1 10/2/1 11/3/1 12/4/1
f 13/1/1 14/2/1 15/3/1 16/4/1
f 17/1/1 18/2/1 19/3/1 20/4/1
f 21/1/1 22/2/1 23/3/1 24/4/1
f 25/1/1 26/2/1 27/3/1 28/4/1
f 29/1/1 30/2/1 31/3/1 32/4/1
f 33/1/1 34/2/1 35/3/1 36/4/1
f 37/1/1 38/2/1 39/3/1 40/4/1
f 41/4/1 42/3/1 43/5/1 44/6/1
f 45/4/1 46/3/1 47/5/1 48/6/1
f 49/4/1 50/3/1 51/5/1 52/6/1
f 53/4/1 54/3/1 55/5/1 56/6/1
f 57/4/1 58/3/1 59/5/1 60/6/1
f 61/4/1 62/3/1 63/5/1 64/6/1
f 65/4/1 66/3/1 67/5/1 68/6/1
f 69/4/1 70/3/1 71/5/1 72/6/1
f 73/4/1 74/3/1 75/5/1 76/6/1
f 77/4/1 78/3/1 79/5/1 80/6/1

