# Tiled2Unity generated file. Do not modify by hand.
# Wavefront file for 'donjonGrotte1_4_12_mesh_0026.obj'

# Vertices (Count = 172)
v -1.28 -38.72 0
v -1.6 -38.72 0
v -1.6 -38.4 0
v -1.28 -38.4 0
v -0.96 -38.72 0
v -1.28 -38.72 0
v -1.28 -38.4 0
v -0.96 -38.4 0
v -1.28 -38.4 0
v -1.6 -38.4 0
v -1.6 -38.08 0
v -1.28 -38.08 0
v -0.96 -38.4 0
v -1.28 -38.4 0
v -1.28 -38.08 0
v -0.96 -38.08 0
v -3.2 -38.08 0
v -3.52 -38.08 0
v -3.52 -37.76 0
v -3.2 -37.76 0
v -2.88 -38.08 0
v -3.2 -38.08 0
v -3.2 -37.76 0
v -2.88 -37.76 0
v -24.64 -31.68 0
v -24.96 -31.68 0
v -24.96 -31.36 0
v -24.64 -31.36 0
v -24.32 -31.68 0
v -24.64 -31.68 0
v -24.64 -31.36 0
v -24.32 -31.36 0
v -24.64 -31.36 0
v -24.96 -31.36 0
v -24.96 -31.04 0
v -24.64 -31.04 0
v -24.32 -31.36 0
v -24.64 -31.36 0
v -24.64 -31.04 0
v -24.32 -31.04 0
v -22.72 -31.04 0
v -23.04 -31.04 0
v -23.04 -30.72 0
v -22.72 -30.72 0
v -22.4 -31.04 0
v -22.72 -31.04 0
v -22.72 -30.72 0
v -22.4 -30.72 0
v -24.64 -30.72 0
v -24.96 -30.72 0
v -24.96 -30.4 0
v -24.64 -30.4 0
v -24.64 -30.4 0
v -24.96 -30.4 0
v -24.96 -30.08 0
v -24.64 -30.08 0
v -21.44 -22.08 0
v -21.76 -22.08 0
v -21.76 -21.76 0
v -21.44 -21.76 0
v -21.12 -22.08 0
v -21.44 -22.08 0
v -21.44 -21.76 0
v -21.12 -21.76 0
v -21.12 -21.76 0
v -21.44 -21.76 0
v -21.44 -21.44 0
v -21.12 -21.44 0
v -19.52 -21.44 0
v -19.84 -21.44 0
v -19.84 -21.12 0
v -19.52 -21.12 0
v -19.2 -21.44 0
v -19.52 -21.44 0
v -19.52 -21.12 0
v -19.2 -21.12 0
v -21.44 -21.12 0
v -21.76 -21.12 0
v -21.76 -20.8 0
v -21.44 -20.8 0
v -21.44 -20.8 0
v -21.76 -20.8 0
v -21.76 -20.48 0
v -21.44 -20.48 0
v -46.08 -12.16 0
v -46.4 -12.16 0
v -46.4 -11.84 0
v -46.08 -11.84 0
v -45.76 -12.16 0
v -46.08 -12.16 0
v -46.08 -11.84 0
v -45.76 -11.84 0
v -32 -12.16 0
v -32.32 -12.16 0
v -32.32 -11.84 0
v -32 -11.84 0
v -31.68 -12.16 0
v -32 -12.16 0
v -32 -11.84 0
v -31.68 -11.84 0
v -1.92 -12.16 0
v -2.24 -12.16 0
v -2.24 -11.84 0
v -1.92 -11.84 0
v -1.6 -12.16 0
v -1.92 -12.16 0
v -1.92 -11.84 0
v -1.6 -11.84 0
v -46.08 -11.84 0
v -46.4 -11.84 0
v -46.4 -11.52 0
v -46.08 -11.52 0
v -45.76 -11.84 0
v -46.08 -11.84 0
v -46.08 -11.52 0
v -45.76 -11.52 0
v -32 -11.84 0
v -32.32 -11.84 0
v -32.32 -11.52 0
v -32 -11.52 0
v -31.68 -11.84 0
v -32 -11.84 0
v -32 -11.52 0
v -31.68 -11.52 0
v -1.92 -11.84 0
v -2.24 -11.84 0
v -2.24 -11.52 0
v -1.92 -11.52 0
v -1.6 -11.84 0
v -1.92 -11.84 0
v -1.92 -11.52 0
v -1.6 -11.52 0
v -46.08 -11.52 0
v -46.4 -11.52 0
v -46.4 -11.2 0
v -46.08 -11.2 0
v -44.16 -11.52 0
v -44.48 -11.52 0
v -44.48 -11.2 0
v -44.16 -11.2 0
v -43.84 -11.52 0
v -44.16 -11.52 0
v -44.16 -11.2 0
v -43.84 -11.2 0
v -32 -11.52 0
v -32.32 -11.52 0
v -32.32 -11.2 0
v -32 -11.2 0
v -30.08 -11.52 0
v -30.4 -11.52 0
v -30.4 -11.2 0
v -30.08 -11.2 0
v -29.76 -11.52 0
v -30.08 -11.52 0
v -30.08 -11.2 0
v -29.76 -11.2 0
v -3.84 -11.52 0
v -4.16 -11.52 0
v -4.16 -11.2 0
v -3.84 -11.2 0
v -3.52 -11.52 0
v -3.84 -11.52 0
v -3.84 -11.2 0
v -3.52 -11.2 0
v -46.08 -11.2 0
v -46.4 -11.2 0
v -46.4 -10.88 0
v -46.08 -10.88 0
v -32 -11.2 0
v -32.32 -11.2 0
v -32.32 -10.88 0
v -32 -10.88 0

# Texture cooridinates (Count = 12)
vt 0 0
vt 0.25 0
vt 0.25 0.5
vt 0 0.5
vt 0.25 1
vt 0 1
vt 0.75 0
vt 1 0
vt 1 0.5
vt 0.75 0.5
vt 0.5 0
vt 0.5 0.5

# Normal
vn 0 0 -1

# Mesh description
g donjonGrotte1_4_12_mesh_0026

# Faces
f 1/1/1 2/2/1 3/3/1 4/4/1
f 5/1/1 6/2/1 7/3/1 8/4/1
f 9/4/1 10/3/1 11/5/1 12/6/1
f 13/4/1 14/3/1 15/5/1 16/6/1
f 17/7/1 18/8/1 19/9/1 20/10/1
f 21/11/1 22/7/1 23/10/1 24/12/1
f 25/1/1 26/2/1 27/3/1 28/4/1
f 29/1/1 30/2/1 31/3/1 32/4/1
f 33/4/1 34/3/1 35/5/1 36/6/1
f 37/4/1 38/3/1 39/5/1 40/6/1
f 41/7/1 42/8/1 43/9/1 44/10/1
f 45/11/1 46/7/1 47/10/1 48/12/1
f 49/1/1 50/2/1 51/3/1 52/4/1
f 53/4/1 54/3/1 55/5/1 56/6/1
f 57/1/1 58/2/1 59/3/1 60/4/1
f 61/1/1 62/2/1 63/3/1 64/4/1
f 65/4/1 66/3/1 67/5/1 68/6/1
f 69/7/1 70/8/1 71/9/1 72/10/1
f 73/11/1 74/7/1 75/10/1 76/12/1
f 77/1/1 78/2/1 79/3/1 80/4/1
f 81/4/1 82/3/1 83/5/1 84/6/1
f 85/1/1 86/2/1 87/3/1 88/4/1
f 89/1/1 90/2/1 91/3/1 92/4/1
f 93/1/1 94/2/1 95/3/1 96/4/1
f 97/1/1 98/2/1 99/3/1 100/4/1
f 101/1/1 102/2/1 103/3/1 104/4/1
f 105/1/1 106/2/1 107/3/1 108/4/1
f 109/4/1 110/3/1 111/5/1 112/6/1
f 113/4/1 114/3/1 115/5/1 116/6/1
f 117/4/1 118/3/1 119/5/1 120/6/1
f 121/4/1 122/3/1 123/5/1 124/6/1
f 125/4/1 126/3/1 127/5/1 128/6/1
f 129/4/1 130/3/1 131/5/1 132/6/1
f 133/1/1 134/2/1 135/3/1 136/4/1
f 137/7/1 138/8/1 139/9/1 140/10/1
f 141/11/1 142/7/1 143/10/1 144/12/1
f 145/1/1 146/2/1 147/3/1 148/4/1
f 149/7/1 150/8/1 151/9/1 152/10/1
f 153/11/1 154/7/1 155/10/1 156/12/1
f 157/7/1 158/8/1 159/9/1 160/10/1
f 161/11/1 162/7/1 163/10/1 164/12/1
f 165/4/1 166/3/1 167/5/1 168/6/1
f 169/4/1 170/3/1 171/5/1 172/6/1

