# Tiled2Unity generated file. Do not modify by hand.
# Wavefront file for 'donjonGrotte1_4_12_mesh_0048.obj'

# Vertices (Count = 112)
v -27.2 -40 0
v -27.52 -40 0
v -27.52 -39.68 0
v -27.2 -39.68 0
v -16.96 -39.68 0
v -17.28 -39.68 0
v -17.28 -39.36 0
v -16.96 -39.36 0
v -16.64 -39.68 0
v -16.96 -39.68 0
v -16.96 -39.36 0
v -16.64 -39.36 0
v -5.76 -39.68 0
v -6.08 -39.68 0
v -6.08 -39.36 0
v -5.76 -39.36 0
v -13.12 -38.08 0
v -13.44 -38.08 0
v -13.44 -37.76 0
v -13.12 -37.76 0
v -45.44 -37.44 0
v -45.76 -37.44 0
v -45.76 -37.12 0
v -45.44 -37.12 0
v -45.12 -37.44 0
v -45.44 -37.44 0
v -45.44 -37.12 0
v -45.12 -37.12 0
v -22.72 -36.48 0
v -23.04 -36.48 0
v -23.04 -36.16 0
v -22.72 -36.16 0
v -22.4 -36.48 0
v -22.72 -36.48 0
v -22.72 -36.16 0
v -22.4 -36.16 0
v -3.84 -34.88 0
v -4.16 -34.88 0
v -4.16 -34.56 0
v -3.84 -34.56 0
v -19.52 -33.6 0
v -19.84 -33.6 0
v -19.84 -33.28 0
v -19.52 -33.28 0
v -19.2 -33.6 0
v -19.52 -33.6 0
v -19.52 -33.28 0
v -19.2 -33.28 0
v -23.36 -31.68 0
v -23.68 -31.68 0
v -23.68 -31.36 0
v -23.36 -31.36 0
v -6.08 -31.04 0
v -6.4 -31.04 0
v -6.4 -30.72 0
v -6.08 -30.72 0
v -5.76 -31.04 0
v -6.08 -31.04 0
v -6.08 -30.72 0
v -5.76 -30.72 0
v -6.08 -25.92 0
v -6.4 -25.92 0
v -6.4 -25.6 0
v -6.08 -25.6 0
v -21.44 -23.68 0
v -21.76 -23.68 0
v -21.76 -23.36 0
v -21.44 -23.36 0
v -21.12 -23.68 0
v -21.44 -23.68 0
v -21.44 -23.36 0
v -21.12 -23.36 0
v -8.639999 -23.68 0
v -8.96 -23.68 0
v -8.96 -23.36 0
v -8.639999 -23.36 0
v -8.32 -23.68 0
v -8.639999 -23.68 0
v -8.639999 -23.36 0
v -8.32 -23.36 0
v -4.16 -17.92 0
v -4.48 -17.92 0
v -4.48 -17.6 0
v -4.16 -17.6 0
v -3.84 -17.92 0
v -4.16 -17.92 0
v -4.16 -17.6 0
v -3.84 -17.6 0
v -31.68 -14.4 0
v -32 -14.4 0
v -32 -14.08 0
v -31.68 -14.08 0
v -31.36 -14.4 0
v -31.68 -14.4 0
v -31.68 -14.08 0
v -31.36 -14.08 0
v -2.24 -14.4 0
v -2.56 -14.4 0
v -2.56 -14.08 0
v -2.24 -14.08 0
v -9.92 -13.76 0
v -10.24 -13.76 0
v -10.24 -13.44 0
v -9.92 -13.44 0
v -19.2 -12.48 0
v -19.52 -12.48 0
v -19.52 -12.16 0
v -19.2 -12.16 0
v -18.88 -12.48 0
v -19.2 -12.48 0
v -19.2 -12.16 0
v -18.88 -12.16 0

# Texture cooridinates (Count = 12)
vt 0.9375 0.3125
vt 0.96875 0.3125
vt 0.96875 0.34375
vt 0.9375 0.34375
vt 0.90625 0.3125
vt 0.90625 0.34375
vt 0.875 0.3125
vt 0.875 0.34375
vt 0.84375 0.3125
vt 0.84375 0.34375
vt 0.8125 0.3125
vt 0.8125 0.34375

# Normal
vn 0 0 -1

# Mesh description
g donjonGrotte1_4_12_mesh_0048

# Faces
f 1/1/1 2/2/1 3/3/1 4/4/1
f 5/5/1 6/1/1 7/4/1 8/6/1
f 9/7/1 10/5/1 11/6/1 12/8/1
f 13/1/1 14/2/1 15/3/1 16/4/1
f 17/1/1 18/2/1 19/3/1 20/4/1
f 21/9/1 22/7/1 23/8/1 24/10/1
f 25/11/1 26/9/1 27/10/1 28/12/1
f 29/9/1 30/7/1 31/8/1 32/10/1
f 33/11/1 34/9/1 35/10/1 36/12/1
f 37/1/1 38/2/1 39/3/1 40/4/1
f 41/5/1 42/1/1 43/4/1 44/6/1
f 45/7/1 46/5/1 47/6/1 48/8/1
f 49/1/1 50/2/1 51/3/1 52/4/1
f 53/5/1 54/1/1 55/4/1 56/6/1
f 57/7/1 58/5/1 59/6/1 60/8/1
f 61/1/1 62/2/1 63/3/1 64/4/1
f 65/9/1 66/7/1 67/8/1 68/10/1
f 69/11/1 70/9/1 71/10/1 72/12/1
f 73/5/1 74/1/1 75/4/1 76/6/1
f 77/7/1 78/5/1 79/6/1 80/8/1
f 81/9/1 82/7/1 83/8/1 84/10/1
f 85/11/1 86/9/1 87/10/1 88/12/1
f 89/5/1 90/1/1 91/4/1 92/6/1
f 93/7/1 94/5/1 95/6/1 96/8/1
f 97/1/1 98/2/1 99/3/1 100/4/1
f 101/1/1 102/2/1 103/3/1 104/4/1
f 105/9/1 106/7/1 107/8/1 108/10/1
f 109/11/1 110/9/1 111/10/1 112/12/1

