# Tiled2Unity generated file. Do not modify by hand.
# Wavefront file for 'Pyramid_mesh_0008.obj'

# Vertices (Count = 56)
v -12.58667 -12.8 0
v -12.8 -12.8 0
v -12.8 -12.58667 0
v -12.58667 -12.58667 0
v -13.22667 -12.8 0
v -13.44 -12.8 0
v -13.44 -12.58667 0
v -13.22667 -12.58667 0
v -12.58667 -13.01333 0
v -12.8 -13.01333 0
v -12.8 -12.8 0
v -12.58667 -12.8 0
v -13.22667 -13.01333 0
v -13.44 -13.01333 0
v -13.44 -12.8 0
v -13.22667 -12.8 0
v -12.58667 -13.22667 0
v -12.8 -13.22667 0
v -12.8 -13.01333 0
v -12.58667 -13.01333 0
v -13.22667 -13.22667 0
v -13.44 -13.22667 0
v -13.44 -13.01333 0
v -13.22667 -13.01333 0
v -12.58667 -13.44 0
v -12.8 -13.44 0
v -12.8 -13.22667 0
v -12.58667 -13.22667 0
v -13.22667 -13.44 0
v -13.44 -13.44 0
v -13.44 -13.22667 0
v -13.22667 -13.22667 0
v -12.58667 -13.65333 0
v -12.8 -13.65333 0
v -12.8 -13.44 0
v -12.58667 -13.44 0
v -13.22667 -13.65333 0
v -13.44 -13.65333 0
v -13.44 -13.44 0
v -13.22667 -13.44 0
v -12.58667 -13.86667 0
v -12.8 -13.86667 0
v -12.8 -13.65333 0
v -12.58667 -13.65333 0
v -12.8 -13.86667 0
v -13.01333 -13.86667 0
v -13.01333 -13.65333 0
v -12.8 -13.65333 0
v -13.01333 -13.86667 0
v -13.22667 -13.86667 0
v -13.22667 -13.65333 0
v -13.01333 -13.65333 0
v -13.22667 -13.86667 0
v -13.44 -13.86667 0
v -13.44 -13.65333 0
v -13.22667 -13.65333 0

# Texture cooridinates (Count = 12)
vt 0 0.5
vt 0.3333333 0.5
vt 0.3333333 1
vt 0 1
vt 0.6666667 0.5
vt 1 0.5
vt 1 1
vt 0.6666667 1
vt 0 0
vt 0.3333333 0
vt 0.6666667 0
vt 1 0

# Normal
vn 0 0 -1

# Mesh description
g Pyramid_mesh_0008

# Faces
f 1/1/1 2/2/1 3/3/1 4/4/1
f 5/5/1 6/6/1 7/7/1 8/8/1
f 9/1/1 10/2/1 11/3/1 12/4/1
f 13/5/1 14/6/1 15/7/1 16/8/1
f 17/1/1 18/2/1 19/3/1 20/4/1
f 21/5/1 22/6/1 23/7/1 24/8/1
f 25/1/1 26/2/1 27/3/1 28/4/1
f 29/5/1 30/6/1 31/7/1 32/8/1
f 33/1/1 34/2/1 35/3/1 36/4/1
f 37/5/1 38/6/1 39/7/1 40/8/1
f 41/9/1 42/10/1 43/2/1 44/1/1
f 45/10/1 46/11/1 47/5/1 48/2/1
f 49/10/1 50/11/1 51/5/1 52/2/1
f 53/11/1 54/12/1 55/6/1 56/5/1

