# Tiled2Unity generated file. Do not modify by hand.
# Wavefront file for 'map_1_3_4_mesh_0023.obj'

# Vertices (Count = 100)
v -2.88 -0.32 0
v -3.2 -0.32 0
v -3.2 0 0
v -2.88 0 0
v -3.2 -0.32 0
v -3.52 -0.32 0
v -3.52 0 0
v -3.2 0 0
v -3.52 -0.32 0
v -3.84 -0.32 0
v -3.84 0 0
v -3.52 0 0
v -3.84 -0.32 0
v -4.16 -0.32 0
v -4.16 0 0
v -3.84 0 0
v -7.04 -0.32 0
v -7.36 -0.32 0
v -7.36 0 0
v -7.04 0 0
v -7.36 -0.32 0
v -7.68 -0.32 0
v -7.68 0 0
v -7.36 0 0
v -7.68 -0.32 0
v -8 -0.32 0
v -8 0 0
v -7.68 0 0
v -8 -0.32 0
v -8.32 -0.32 0
v -8.32 0 0
v -8 0 0
v -2.88 -0.64 0
v -3.2 -0.64 0
v -3.2 -0.32 0
v -2.88 -0.32 0
v -3.2 -0.64 0
v -3.52 -0.64 0
v -3.52 -0.32 0
v -3.2 -0.32 0
v -3.52 -0.64 0
v -3.84 -0.64 0
v -3.84 -0.32 0
v -3.52 -0.32 0
v -3.84 -0.64 0
v -4.16 -0.64 0
v -4.16 -0.32 0
v -3.84 -0.32 0
v -7.04 -0.64 0
v -7.36 -0.64 0
v -7.36 -0.32 0
v -7.04 -0.32 0
v -7.36 -0.64 0
v -7.68 -0.64 0
v -7.68 -0.32 0
v -7.36 -0.32 0
v -7.68 -0.64 0
v -8 -0.64 0
v -8 -0.32 0
v -7.68 -0.32 0
v -8 -0.64 0
v -8.32 -0.64 0
v -8.32 -0.32 0
v -8 -0.32 0
v -5.12 -1.28 0
v -5.44 -1.28 0
v -5.44 -0.96 0
v -5.12 -0.96 0
v -5.44 -1.28 0
v -5.76 -1.28 0
v -5.76 -0.96 0
v -5.44 -0.96 0
v -5.76 -1.28 0
v -6.08 -1.28 0
v -6.08 -0.96 0
v -5.76 -0.96 0
v -5.12 -1.6 0
v -5.44 -1.6 0
v -5.44 -1.28 0
v -5.12 -1.28 0
v -5.44 -1.6 0
v -5.76 -1.6 0
v -5.76 -1.28 0
v -5.44 -1.28 0
v -5.76 -1.6 0
v -6.08 -1.6 0
v -6.08 -1.28 0
v -5.76 -1.28 0
v 0 -7.36 0
v -0.32 -7.36 0
v -0.32 -7.04 0
v 0 -7.04 0
v -2.24 -8.32 0
v -2.56 -8.32 0
v -2.56 -8 0
v -2.24 -8 0
v 0 -8.639999 0
v -0.32 -8.639999 0
v -0.32 -8.32 0
v 0 -8.32 0

# Texture cooridinates (Count = 34)
vt 0.375 0.9375
vt 0.4375 0.9375
vt 0.4375 1
vt 0.375 1
vt 0.375 0.875
vt 0.4375 0.875
vt 0.5625 0.875
vt 0.625 0.875
vt 0.625 0.9375
vt 0.5625 0.9375
vt 0.625 1
vt 0.5625 1
vt 0.5 0.875
vt 0.5 0.9375
vt 0.8125 0.75
vt 0.875 0.75
vt 0.875 0.8125
vt 0.8125 0.8125
vt 0.9375 0.75
vt 0.9375 0.8125
vt 1 0.75
vt 1 0.8125
vt 0.8125 0.6875
vt 0.875 0.6875
vt 0.9375 0.6875
vt 1 0.6875
vt 0.75 0.0625
vt 0.8125 0.0625
vt 0.8125 0.125
vt 0.75 0.125
vt 0.4375 0.625
vt 0.5 0.625
vt 0.5 0.6875
vt 0.4375 0.6875

# Normal
vn 0 0 -1

# Mesh description
g map_1_3_4_mesh_0023

# Faces
f 1/1/1 2/2/1 3/3/1 4/4/1
f 5/5/1 6/6/1 7/2/1 8/1/1
f 9/7/1 10/8/1 11/9/1 12/10/1
f 13/10/1 14/9/1 15/11/1 16/12/1
f 17/1/1 18/2/1 19/3/1 20/4/1
f 21/5/1 22/6/1 23/2/1 24/1/1
f 25/7/1 26/8/1 27/9/1 28/10/1
f 29/10/1 30/9/1 31/11/1 32/12/1
f 33/5/1 34/6/1 35/2/1 36/1/1
f 37/6/1 38/13/1 39/14/1 40/2/1
f 41/13/1 42/7/1 43/10/1 44/14/1
f 45/7/1 46/8/1 47/9/1 48/10/1
f 49/5/1 50/6/1 51/2/1 52/1/1
f 53/6/1 54/13/1 55/14/1 56/2/1
f 57/13/1 58/7/1 59/10/1 60/14/1
f 61/7/1 62/8/1 63/9/1 64/10/1
f 65/15/1 66/16/1 67/17/1 68/18/1
f 69/16/1 70/19/1 71/20/1 72/17/1
f 73/19/1 74/21/1 75/22/1 76/20/1
f 77/23/1 78/24/1 79/16/1 80/15/1
f 81/24/1 82/25/1 83/19/1 84/16/1
f 85/25/1 86/26/1 87/21/1 88/19/1
f 89/27/1 90/28/1 91/29/1 92/30/1
f 93/31/1 94/32/1 95/33/1 96/34/1
f 97/27/1 98/28/1 99/29/1 100/30/1

